<?xml version="1.0" encoding="UTF-8"?>
<svg version="1.1" xmlns="http://www.w3.org/2000/svg" width="2870" height="2807">
<path d="M0 0 C2.50477372 0.00544637 5.00953797 0.00780934 7.51431656 0.00987244 C31.7658474 0.04098283 55.87282533 0.46551488 80.00458145 3.09324646 C82.09356645 3.31844096 84.18350862 3.53075587 86.27417374 3.73973083 C164.2125987 11.60539148 241.8206998 32.14416769 459.08813858 147.31785583 C460.23645157 148.14519226 460.23645157 148.14519226 461.4079628 148.98924255 C471.27827965 156.12283547 480.90618623 163.47391959 490.30298233 171.22019958 C493.969947 174.23944366 497.70945424 177.15770181 501.46313858 180.06785583 C506.38418828 183.89678625 511.06191167 187.90389683 515.65063858 192.13035583 C518.28851268 194.49767874 521.01398732 196.72152765 523.77563858 198.94285583 C527.55205865 201.99793724 531.04136778 205.14649897 534.41235733 208.63816833 C536.23158314 210.46163477 538.13581769 212.13803862 540.08813858 213.81785583 C543.29000803 216.57638952 546.27162433 219.47509357 549.22900772 222.49143982 C550.94742257 224.17961598 552.71414783 225.73595875 554.55298233 227.29051208 C559.78786073 231.84378451 564.66785675 236.74754854 569.56103897 241.66038513 C571.14773804 243.2524455 572.739716 244.83908574 574.33227921 246.42527771 C579.26806168 251.35817304 584.12608832 256.3169476 588.63476944 261.65013123 C590.21061446 263.45839552 591.87592925 265.13885208 593.58813858 266.81785583 C596.6022744 269.78520906 599.38731191 272.89130876 602.14673233 276.09519958 C604.37617919 278.64762466 606.6681524 281.13673097 608.96313858 283.63035583 C613.03353914 288.09308416 616.88990767 292.68043584 620.68188858 297.38035583 C623.38593358 300.68139778 626.16946719 303.90531199 628.96313858 307.13035583 C634.43040932 313.46420936 639.62364963 319.98069642 644.74682999 326.59422302 C646.05305335 328.27276997 647.37071109 329.9414909 648.69360733 331.60691833 C656.69627704 341.69019293 664.42593057 351.97417997 672.08813858 362.31785583 C672.64259659 363.06551208 673.1970546 363.81316833 673.76831436 364.58348083 C682.6920961 376.65922807 691.03586174 389.09586718 699.3064003 401.62547302 C701.24016857 404.54758818 703.19286871 407.45639486 705.1501503 410.36277771 C722.74162836 436.53669903 738.91115922 463.68477764 754.08813858 491.31785583 C755.10225594 493.15130288 756.11657357 494.98463917 757.13110733 496.81785583 C764.72649576 510.59199281 772.01551848 524.52225188 779.17346573 538.52818298 C779.78404501 539.72285838 780.39513041 540.91727524 781.00671768 542.11143494 C791.31542266 562.24445174 800.92647968 582.63871618 810.08813858 603.31785583 C810.56703537 604.39586456 810.56703537 604.39586456 811.05560684 605.49565125 C836.75118352 663.35218484 858.27163077 722.74919516 877.40063858 783.06785583 C877.65522842 783.86961243 877.90981827 784.67136902 878.17212296 785.49742126 C880.94707298 794.25429681 883.5948308 803.01943703 886.00122452 811.88621521 C888.69322838 821.71815465 891.72689531 829.21607695 898.08813858 837.31785583 C900.26666861 840.33665504 902.39461462 843.39040465 904.52563858 846.44285583 C905.11659317 847.28292175 905.70754776 848.12298767 906.31641006 848.98851013 C914.1982922 860.23781301 921.65087082 871.77190082 929.08813858 883.31785583 C929.90363174 884.58363464 929.90363174 884.58363464 930.73559952 885.87498474 C951.68203185 918.49390849 971.06779608 951.99987443 989.08813858 986.31785583 C989.43036453 986.96836914 989.77259048 987.61888245 990.12518692 988.28910828 C999.75436565 1006.59843742 1009.0029924 1025.01347039 1017.52759171 1043.86863708 C1019.11514294 1047.37754256 1020.71823872 1050.87906928 1022.32251358 1054.38035583 C1056.9521749 1130.34068896 1083.76316269 1210.70969784 1124.08813858 1468.31785583 C1124.14598526 1469.3302533 1124.20383194 1470.34265076 1124.26343155 1471.38572693 C1126.51037949 1511.5840924 1125.68945253 1552.15885511 1123.08813858 1592.31785583 C1123.03957718 1593.07898682 1122.99101578 1593.8401178 1122.94098282 1594.62431335 C1120.3059771 1635.46856208 1114.87155209 1676.14483305 1107.08813858 1716.31785583 C1106.93751968 1717.09804077 1106.78690079 1717.87822571 1106.63171768 1718.68205261 C1091.16162209 1798.49509191 1065.62589904 1875.74261283 1031.08813858 1949.31785583 C1030.61795303 1950.32139099 1030.14776749 1951.32492615 1029.66333389 1952.35887146 C1005.95697636 2002.78905113 977.72574745 2050.48112892 946.08813858 2096.31785583 C945.53915909 2097.11562439 944.9901796 2097.91339294 944.42456436 2098.7353363 C936.59420266 2110.0872227 928.29340522 2121.05941174 919.88159561 2131.9853363 C918.34921166 2133.97831156 916.82360292 2135.97606031 915.30298233 2137.97801208 C906.52244765 2149.49978687 897.36652273 2160.72062155 887.96460342 2171.74021912 C885.17530916 2175.01284213 882.4610864 2178.33480967 879.77563858 2181.69285583 C875.49063158 2186.9661167 870.89509845 2191.91167523 866.22363663 2196.84080505 C863.36266805 2199.8618765 860.55292239 2202.90862722 857.83081436 2206.05589294 C854.23053067 2210.18113771 850.53081696 2214.20073523 846.77563858 2218.18504333 C846.08977676 2218.91295074 845.40391495 2219.64085815 844.69726944 2220.39082336 C837.3848477 2228.11422333 829.89782557 2235.65965303 822.36694717 2243.16941833 C820.05797622 2245.4729471 817.75451081 2247.7818872 815.45141983 2250.09129333 C813.95564717 2251.5864063 812.45956494 2253.08120965 810.96313858 2254.57566833 C809.9519899 2255.58985336 809.9519899 2255.58985336 808.92041397 2256.62452698 C805.01728639 2260.50868203 801.00351182 2264.20499054 796.83584976 2267.8037262 C794.90593933 2269.47570416 793.03816787 2271.20077399 791.19360733 2272.96629333 C790.55391006 2273.57440857 789.9142128 2274.1825238 789.25513077 2274.80906677 C788.60189835 2275.43071716 787.94866592 2276.05236755 787.27563858 2276.69285583 C781.92093432 2281.7548991 776.49306998 2286.5552458 770.72876358 2291.14598083 C767.74716796 2293.59829912 764.91275379 2296.18894353 762.08813858 2298.81785583 C756.61077262 2303.90173286 750.91275679 2308.63869596 745.08813858 2313.31785583 C743.82421689 2314.34930501 742.5612565 2315.38193285 741.29907608 2316.41551208 C733.96250527 2322.41711402 726.56001064 2328.30797798 719.02954483 2334.06394958 C712.96578076 2338.71041953 707.03483554 2343.47741044 701.27051163 2348.48997498 C682.76596738 2364.56073279 662.69876204 2379.06852009 642.08813858 2392.31785583 C641.35385635 2392.79126404 640.61957413 2393.26467224 639.86304092 2393.75242615 C624.35425269 2403.69321562 608.29640104 2412.58667642 592.08813858 2421.31785583 C590.98953506 2421.91114685 589.89093155 2422.50443787 588.75903702 2423.1157074 C568.43347179 2434.04967505 568.43347179 2434.04967505 558.61157608 2437.15769958 C555.32848636 2438.66710771 553.52775511 2440.65510364 551.08813858 2443.31785583 C550.06000037 2444.40817848 549.03132576 2445.49799549 548.00220108 2446.58738708 C546.90451717 2447.76714082 545.80820442 2448.94817156 544.71313858 2450.13035583 C544.13515518 2450.75345642 543.55717178 2451.37655701 542.96167374 2452.01853943 C539.53650257 2455.72166193 536.17152259 2459.46583159 532.87329483 2463.28269958 C529.68570624 2466.91669008 526.4019544 2470.46304017 523.12378311 2474.01512146 C521.32483015 2475.9672463 519.53963655 2477.92851336 517.76562881 2479.90354919 C507.78896746 2490.9213384 497.20528773 2501.35284404 486.68725967 2511.84910583 C483.88465827 2514.64597574 481.08662066 2517.44736184 478.28986359 2520.25007439 C476.10734994 2522.43622238 473.92243473 2524.61995773 471.73681259 2526.80299759 C470.70439739 2527.83475328 469.67270333 2528.86723118 468.64179611 2529.90049362 C463.50514744 2535.04631747 458.34534666 2540.11811082 452.80763626 2544.83647156 C449.69869626 2547.51489031 446.75331612 2550.37048026 443.77563858 2553.19285583 C438.58055174 2558.08310914 433.274611 2562.72215301 427.69751358 2567.17723083 C424.90382343 2569.46906048 422.2460508 2571.87017396 419.58813858 2574.31785583 C414.77769586 2578.73533281 409.8084347 2582.88725171 404.72534561 2586.9853363 C402.8642579 2588.50007187 401.02056652 2590.03457369 399.17798233 2591.57176208 C391.07505471 2598.32200993 382.86299103 2604.84660604 374.38501358 2611.11863708 C371.22451475 2613.45927933 368.09584618 2615.83766703 364.97876358 2618.23582458 C364.085121 2618.9224115 363.19147842 2619.60899841 362.27075577 2620.31639099 C360.56074125 2621.63205014 358.85282869 2622.95044903 357.14770889 2624.27244568 C317.13985916 2654.98738299 273.03643294 2681.22883345 228.63403702 2704.95310974 C226.43806734 2706.13027415 224.24938476 2707.31914906 222.06470108 2708.51707458 C147.37193152 2749.31939348 63.77146769 2776.36278395 -101.03686142 2803.56785583 C-102.40894257 2803.69248199 -102.40894257 2803.69248199 -103.80874252 2803.81962585 C-109.84007583 2804.36094732 -115.87397109 2804.85574231 -121.91186142 2805.31785583 C-122.94627365 2805.40057739 -122.94627365 2805.40057739 -124.0015831 2805.48497009 C-140.9253796 2806.80042058 -157.94782345 2806.56362745 -174.91186142 2806.56785583 C-175.72382351 2806.56829769 -176.5357856 2806.56873955 -177.3723526 2806.56919479 C-203.33093487 2806.5765936 -229.07877066 2806.0944346 -254.91186142 2803.31785583 C-255.72288315 2803.23299927 -256.53390488 2803.1481427 -257.36950302 2803.06071472 C-344.34430721 2793.94501701 -428.69147507 2770.2842637 -507.91186142 2733.31785583 C-509.00273056 2732.81157654 -510.0935997 2732.30529724 -511.21752548 2731.78367615 C-525.23192888 2725.2564772 -538.91005233 2718.25688009 -552.40404892 2710.71434021 C-554.75323153 2709.40618946 -557.11124901 2708.11625427 -559.47436142 2706.83348083 C-567.67073064 2702.36911036 -575.72979107 2697.69641158 -583.72436142 2692.88035583 C-584.70155136 2692.30478943 -585.6787413 2691.72922302 -586.68554306 2691.13621521 C-592.07114001 2687.90251755 -596.99991212 2684.50950463 -601.82201767 2680.47801208 C-622.44496741 2663.75793775 -645.09798899 2662.33079508 -670.83666611 2659.58163452 C-683.25006819 2658.23732995 -695.50418123 2656.22875588 -707.78686142 2654.00535583 C-708.82511063 2653.81927765 -709.86335983 2653.63319946 -710.93307114 2653.44148254 C-804.95847835 2636.5204658 -897.71434567 2610.52258415 -1024.91186142 2557.31785583 C-1025.98935654 2556.83768005 -1027.06685165 2556.35750427 -1028.17699814 2555.86277771 C-1059.1554396 2541.96431626 -1090.04297431 2527.02079029 -1119.32592392 2509.81590271 C-1123.20136495 2507.57083982 -1127.12852815 2505.42161215 -1131.05053329 2503.25926208 C-1152.24532711 2491.54669295 -1172.71074287 2478.65967541 -1192.91186142 2465.31785583 C-1194.01272079 2464.59340271 -1195.11358017 2463.86894958 -1196.24779892 2463.12254333 C-1209.91511366 2454.0720695 -1223.33063944 2444.68189823 -1236.57348251 2435.02244568 C-1238.14779531 2433.87483115 -1239.7236741 2432.72936215 -1241.30102158 2431.58592224 C-1251.88784786 2423.9099909 -1262.18019543 2415.97770296 -1272.26977158 2407.66014099 C-1274.39262334 2405.92486906 -1276.5519014 2404.2404578 -1278.72436142 2402.56785583 C-1287.49123453 2395.8024764 -1295.92510919 2388.64392781 -1304.31029892 2381.41551208 C-1306.65969118 2379.39041465 -1309.01861282 2377.37760853 -1311.38842392 2375.37644958 C-1318.23337188 2369.58330751 -1324.89398295 2363.63678931 -1331.41161728 2357.47654724 C-1334.72420394 2354.34625774 -1338.07742181 2351.27589983 -1341.48632431 2348.25047302 C-1346.9958821 2343.2968464 -1352.2538936 2338.12026523 -1357.48608017 2332.87644958 C-1358.46378456 2331.89942159 -1359.44163711 2330.92254184 -1360.41962814 2329.94580078 C-1362.4506458 2327.91624292 -1364.4798813 2325.88492517 -1366.50780869 2323.85227966 C-1369.08617993 2321.26819683 -1371.66903772 2318.68865241 -1374.25324917 2316.11041164 C-1376.26698091 2314.10031927 -1378.27829322 2312.08781947 -1380.28891563 2310.07461739 C-1381.69604245 2308.66651507 -1383.10515476 2307.26039775 -1384.51432419 2305.8543396 C-1388.98402662 2301.36840774 -1393.33030806 2296.83582289 -1397.44614792 2292.02168274 C-1399.81063749 2289.27306853 -1402.30670313 2286.64916032 -1404.78686142 2284.00535583 C-1409.32534666 2279.13200034 -1413.60534939 2274.11481606 -1417.77514267 2268.91941833 C-1419.87068635 2266.36798855 -1422.05149296 2263.9345881 -1424.28686142 2261.50535583 C-1428.26694608 2257.13277147 -1431.92533639 2252.57616292 -1435.5463829 2247.90794373 C-1438.54714923 2244.04227801 -1441.60147295 2240.22878447 -1444.70580673 2236.44578552 C-1451.70049815 2227.92165475 -1458.39046223 2219.2083978 -1464.91186142 2210.31785583 C-1465.43248154 2209.60903259 -1465.95310165 2208.90020935 -1466.48949814 2208.16990662 C-1485.59704842 2182.0909181 -1503.39982906 2155.11219601 -1519.91186142 2127.31785583 C-1520.79261337 2125.83672302 -1520.79261337 2125.83672302 -1521.69115829 2124.32566833 C-1564.00552078 2052.83690827 -1596.58430238 1975.94817893 -1642.91186142 1774.31785583 C-1643.05594437 1773.24670532 -1643.05594437 1773.24670532 -1643.20293808 1772.15391541 C-1643.85772324 1767.23430096 -1644.46415394 1762.31017336 -1645.03686142 1757.38035583 C-1645.11992538 1756.67425171 -1645.20298935 1755.96814758 -1645.2885704 1755.24064636 C-1646.45160905 1745.14008123 -1647.09562062 1735.06938939 -1647.51733017 1724.91160583 C-1648.70922392 1698.163359 -1651.193572 1675.85176841 -1662.92281723 1651.6530304 C-1666.67888695 1643.8827871 -1669.64940948 1635.8585569 -1672.59936142 1627.75535583 C-1673.13190113 1626.31003018 -1673.66469652 1624.8647987 -1674.19775009 1623.41966248 C-1679.91018972 1607.85554883 -1685.15238379 1592.13262204 -1690.25164413 1576.35844421 C-1690.87498462 1574.43183403 -1691.50195202 1572.5063984 -1692.12914658 1570.58103943 C-1708.25149683 1520.88133595 -1720.11273555 1469.79255833 -1728.91186142 1418.31785583 C-1729.05259079 1417.49646118 -1729.19332016 1416.67506653 -1729.33831406 1415.82878113 C-1736.42153133 1374.27853942 -1740.5275311 1332.38582658 -1742.91186142 1290.31785583 C-1742.98388779 1289.06617615 -1743.05591415 1287.81449646 -1743.13012314 1286.52488708 C-1748.20575381 1192.92864192 -1739.09811623 1097.9464675 -1612.11498642 738.75926208 C-1609.8302017 734.8995222 -1607.60954468 731.01448784 -1605.45067978 727.08323669 C-1590.4356092 699.75968993 -1572.2344184 673.53495186 -1553.91186142 648.31785583 C-1553.35837021 647.55473083 -1552.804879 646.79160583 -1552.23461533 646.00535583 C-1541.07734548 630.65757654 -1529.38640954 615.81379586 -1517.38402939 601.12205505 C-1516.08914631 599.53512538 -1514.79895664 597.94436847 -1513.50951767 596.35301208 C-1505.2491573 586.18066957 -1496.72165516 576.24041029 -1487.91576767 566.53660583 C-1486.0987416 564.5247719 -1484.3124175 562.4912515 -1482.53686142 560.44285583 C-1478.28249177 555.56825917 -1473.91307327 550.80057971 -1469.51781845 546.0532074 C-1468.4389831 544.88744856 -1467.36185791 543.72010495 -1466.28637314 542.55125427 C-1457.05784196 532.53657909 -1447.53034846 522.83097046 -1437.91186142 513.19285583 C-1437.32759384 512.60600006 -1436.74332626 512.01914429 -1436.14135361 511.414505 C-1424.65892103 499.89193393 -1424.65892103 499.89193393 -1418.54662704 494.73826599 C-1416.7477222 493.17523905 -1415.08006263 491.51897067 -1413.41186142 489.81785583 C-1410.46585927 486.82551208 -1407.38203134 484.06461411 -1404.20092392 481.32566833 C-1401.97613003 479.37422796 -1399.80015641 477.37601936 -1397.63085556 475.36326599 C-1392.42613243 470.53605745 -1387.09696032 465.95464275 -1381.56420517 461.50144958 C-1378.91918505 459.32388516 -1376.37973617 457.06466821 -1373.84936142 454.75535583 C-1369.93931732 451.20021402 -1365.92268459 447.85568557 -1361.77123642 444.58738708 C-1359.63877613 442.89481956 -1357.52765036 441.18635842 -1355.42748642 439.45457458 C-1346.42599076 432.04280055 -1337.21455952 424.969204 -1327.85717392 418.01316833 C-1324.01196978 415.15200248 -1320.21058674 412.24028342 -1316.42455673 409.30149841 C-1308.28773471 402.99402543 -1299.91528127 397.12167892 -1291.38451767 391.36082458 C-1287.58821461 388.79346577 -1283.86588494 386.14071679 -1280.16186142 383.44285583 C-1270.34533492 376.34319395 -1260.09651132 369.87123973 -1249.91186142 363.31785583 C-1249.12746689 362.81028748 -1248.34307236 362.30271912 -1247.53490829 361.7797699 C-1223.61240662 346.31611199 -1198.89590194 331.98621946 -1173.91186142 318.31785583 C-1172.85209091 317.73648865 -1171.7923204 317.15512146 -1170.70043564 316.55613708 C-1140.09289676 299.81572431 -1108.86776378 284.31556981 -1076.91186142 270.31785583 C-1075.76360886 269.81478912 -1075.76360886 269.81478912 -1074.59215927 269.30155945 C-988.15696644 231.50470782 -898.01773186 202.43589817 -558.24502182 150.32493591 C-556.52694498 150.23708859 -554.80898471 150.14693007 -553.09115219 150.0544281 C-542.22214792 149.47894008 -531.42782532 149.30365484 -520.54467392 149.50144958 C-488.16575633 150.52329765 -488.16575633 150.52329765 -460.55541611 135.42723083 C-455.72121794 131.56987286 -450.299753 128.69949352 -444.91186142 125.69285583 C-442.72300841 124.44164283 -440.53420588 123.19034153 -438.34545517 121.93894958 C-428.27888429 116.25164704 -418.12510655 110.73669846 -407.91186142 105.31785583 C-406.87013779 104.7627533 -405.82841415 104.20765076 -404.75512314 103.63572693 C-326.86173203 62.23973926 -242.92293721 32.42061181 -83.91186142 4.06785583 C-82.88012299 3.95174957 -82.88012299 3.95174957 -81.82754135 3.83329773 C-54.58810317 0.8163325 -27.37940284 -0.06198796 0 0 Z M-265.91186142 161.31785583 C-265.91186142 161.64785583 -265.91186142 161.97785583 -265.91186142 162.31785583 C-264.64447128 162.48277527 -263.37708115 162.6476947 -262.07128525 162.81761169 C-157.48809647 176.49909464 -54.50634038 198.46002483 46.08813858 230.31785583 C46.99890152 230.60553833 47.90966446 230.89322083 48.84802628 231.18962097 C131.10333236 257.18973616 210.99602899 289.63862007 301.01953506 333.4540863 C301.78595322 333.82921356 302.55237137 334.20434082 303.34201431 334.59083557 C304.77755098 335.29372629 306.21235547 335.99811518 307.64627457 336.70429993 C311.07987761 338.38492749 314.51464735 339.95775404 318.08813858 341.31785583 C314.37513377 336.76942495 310.56174144 332.86752202 306.09204483 329.06785583 C304.16847144 327.38801007 302.37500362 325.64135364 300.58813858 323.81785583 C296.9253095 320.10586127 293.04707703 316.70938943 289.08813858 313.31785583 C288.09040421 312.45418396 287.09266983 311.59051208 286.06470108 310.70066833 C271.29603008 297.9379399 256.23680802 285.68116946 240.51538467 274.10545349 C238.96371987 272.96269653 237.41433287 271.81683602 235.86792374 270.66697693 C204.73233683 247.51998561 171.17643143 227.31968476 136.27466202 210.38230896 C134.71544962 209.6232462 133.15910885 208.8582729 131.60474014 208.08934021 C65.96441648 175.61794522 -5.19887566 156.61560877 -77.91186142 149.31785583 C-79.08410263 149.19926208 -80.25634384 149.08066833 -81.46410751 148.95848083 C-143.08001064 143.06104644 -205.49352842 148.70648398 -265.91186142 161.31785583 Z M-140.41186142 649.06785583 C-141.3794841 649.15055725 -142.34710678 649.23325867 -143.34405136 649.31846619 C-240.22626051 657.65755665 -336.06668377 676.27673853 -437.91186142 709.31785583 C-438.68320419 709.57053223 -439.45454697 709.82320862 -440.24926376 710.08354187 C-487.30982902 725.51409984 -533.13740605 744.16934715 -577.91186142 765.31785583 C-578.90170029 765.78191833 -579.89153915 766.24598083 -580.91137314 766.72410583 C-607.45855655 779.18229196 -633.56208403 792.57016313 -658.91186142 807.31785583 C-660.07316882 807.99015438 -661.23463444 808.66217968 -662.39623642 809.33396912 C-665.53515912 811.15016395 -668.67075364 812.97199269 -671.80407333 814.7978363 C-673.5694629 815.82651589 -675.3358498 816.85348334 -677.10229111 817.88035583 C-693.10845668 827.26186162 -708.65216974 837.36460729 -724.07397079 847.67234802 C-726.54107854 849.32067338 -729.01145946 850.96400548 -731.48217392 852.60691833 C-745.40809784 861.88658039 -759.14259655 871.43032942 -772.59936142 881.38035583 C-773.3891539 881.96341492 -774.17894638 882.546474 -774.99267197 883.14720154 C-781.50482968 887.97544199 -787.89776202 892.94031251 -794.23803329 897.99119568 C-795.96023469 899.35619603 -797.69220966 900.70780599 -799.42748642 902.05613708 C-806.36151032 907.44979666 -813.13930658 912.98655363 -819.81811142 918.69285583 C-822.70737462 921.15701548 -825.647046 923.55446583 -828.59936142 925.94285583 C-833.0508995 929.56620079 -837.33568597 933.33749456 -841.57983017 937.20066833 C-843.67010031 939.09836753 -845.78172257 940.96518998 -847.91186142 942.81785583 C-852.62731004 946.93093178 -857.27956626 951.11144354 -861.91186142 955.31785583 C-862.41379013 955.77321716 -862.91571884 956.22857849 -863.43285751 956.69773865 C-870.47017984 963.09530439 -877.31342829 969.63015747 -883.96264267 976.43113708 C-886.15674875 978.63403182 -888.45358481 980.66983325 -890.81420517 982.69285583 C-894.88620575 986.21897053 -898.52946136 990.03424323 -902.16186142 994.00535583 C-906.82012597 999.04207517 -911.52627665 1004.0010491 -916.41186142 1008.81785583 C-920.12687415 1012.48935451 -923.69413883 1016.22576944 -927.07983017 1020.20457458 C-928.96107025 1022.37461911 -930.90173355 1024.48311934 -932.85546494 1026.58787537 C-937.68767181 1031.79508721 -942.27183157 1037.12872784 -946.72826767 1042.66551208 C-948.9058321 1045.3105322 -951.16504905 1047.84998108 -953.47436142 1050.38035583 C-957.04951717 1054.31302716 -960.42077408 1058.35021049 -963.70873642 1062.52488708 C-965.31029299 1064.55522919 -966.92303926 1066.57190453 -968.55248642 1068.57957458 C-974.28883357 1075.6615088 -979.87716576 1082.84214404 -985.34936142 1090.13035583 C-985.90889511 1090.8746283 -986.4684288 1091.61890076 -987.04491806 1092.38572693 C-989.01323103 1095.02065073 -990.96516771 1097.66690766 -992.91186142 1100.31785583 C-993.37152298 1100.94380646 -993.83118454 1101.56975708 -994.30477524 1102.2146759 C-1002.78212579 1113.78577856 -1010.91453702 1125.55668103 -1018.84936142 1137.50535583 C-1019.41490738 1138.35536163 -1019.98045334 1139.20536743 -1020.56313705 1140.08113098 C-1029.35047562 1153.29997861 -1037.9175155 1166.60047242 -1045.91186142 1180.31785583 C-1046.56815536 1181.44159607 -1047.22444931 1182.5653363 -1047.90063095 1183.72312927 C-1054.47785851 1194.97959905 -1054.47785851 1194.97959905 -1060.91186142 1206.31785583 C-1061.46474838 1207.24900208 -1061.46474838 1207.24900208 -1062.02880478 1208.19895935 C-1063.29916107 1211.24718225 -1063.60369446 1214.21644918 -1064.02514267 1217.48973083 C-1064.16706543 1218.58373703 -1064.16706543 1218.58373703 -1064.31185532 1219.69984436 C-1064.62573017 1222.15473592 -1064.92618069 1224.6110109 -1065.22436142 1227.06785583 C-1065.3303566 1227.92598877 -1065.43635178 1228.7841217 -1065.54555893 1229.66825867 C-1069.96117508 1265.63565329 -1073.23786119 1301.89414671 -1074.81185532 1338.10359192 C-1074.88225179 1339.66226053 -1074.9577734 1341.2207019 -1075.03701401 1342.77894592 C-1076.09214265 1363.58733445 -1076.09939089 1384.39422194 -1076.09716415 1405.22386169 C-1076.09708352 1409.21446832 -1076.10394167 1413.20495861 -1076.11767197 1417.19554138 C-1076.24141168 1453.79564132 -1075.05909387 1490.26261991 -1072.16186142 1526.75535583 C-1072.07916 1527.81262878 -1071.99645859 1528.86990173 -1071.91125107 1529.95921326 C-1063.86785299 1631.77731894 -1044.68122073 1732.58274629 -918.91186142 2047.31785583 C-918.28279892 2048.40534119 -917.65373642 2049.49282654 -917.00561142 2050.61326599 C-907.71432815 2066.60761128 -897.85915213 2082.17678208 -887.59936142 2097.56785583 C-886.7959079 2098.77514343 -886.7959079 2098.77514343 -885.97622299 2100.00682068 C-874.25363866 2117.58721078 -861.86050542 2134.62264986 -848.91186142 2151.31785583 C-848.42975204 2151.94176208 -847.94764267 2152.56566833 -847.45092392 2153.20848083 C-842.08016539 2160.15189242 -836.59344294 2166.97099658 -830.88695908 2173.64183044 C-828.08019474 2176.92304072 -825.35350128 2180.2532047 -822.66186142 2183.63035583 C-818.16813857 2189.16233955 -813.31326865 2194.32480423 -808.40307236 2199.48509216 C-807.49089951 2200.44451721 -807.49089951 2200.44451721 -806.56029892 2201.42332458 C-806.02582138 2201.98173035 -805.49134384 2202.54013611 -804.94067001 2203.11546326 C-803.13866037 2205.07165206 -801.39843499 2207.06408111 -799.66015244 2209.0766449 C-796.02760121 2213.2405393 -792.20290516 2217.17161212 -788.29076767 2221.07176208 C-787.58717621 2221.77631027 -786.88358475 2222.48085846 -786.15867233 2223.20675659 C-784.68171494 2224.6843895 -783.203514 2226.1607804 -781.72411728 2227.63597107 C-779.48021057 2229.87452065 -777.24169438 2232.11836056 -775.00365829 2234.36277771 C-773.55801524 2235.80775987 -772.11206196 2237.25243175 -770.66576767 2238.69676208 C-770.00718262 2239.35737137 -769.34859756 2240.01798065 -768.67005539 2240.6986084 C-764.79973026 2244.54979605 -760.82243774 2248.22156577 -756.68413925 2251.78369141 C-754.09576318 2254.02430765 -751.60443976 2256.35945419 -749.09936142 2258.69285583 C-743.55522285 2263.8085042 -737.79089127 2268.59023131 -731.91186142 2273.31785583 C-730.72974857 2274.29045053 -729.54882736 2275.26449478 -728.36889267 2276.23973083 C-657.49681355 2334.65665801 -574.74003853 2378.106007 -371.91186142 2420.31785583 C-370.69450302 2420.40398132 -369.47714462 2420.49010681 -368.22289658 2420.57884216 C-354.70908049 2421.47314393 -341.20086284 2421.51799893 -327.66186142 2421.50535583 C-325.86656494 2421.50444946 -325.86656494 2421.50444946 -324.03499985 2421.50352478 C-305.90349127 2421.47870099 -287.96409431 2421.1309622 -269.91186142 2419.31785583 C-268.5603233 2419.18739463 -267.20875972 2419.05719713 -265.85717392 2418.92723083 C-187.34564888 2411.27351355 -111.11348513 2389.87986952 25.08813858 2323.31785583 C26.00933487 2322.78740662 26.93053116 2322.2569574 27.87964249 2321.71043396 C42.28723093 2313.40344578 56.18765236 2304.40856844 70.02563858 2295.19285583 C70.83935928 2294.65190277 71.65307999 2294.11094971 72.49145889 2293.55360413 C90.17327426 2281.77889927 107.30332454 2269.33599901 124.08813858 2256.31785583 C125.02399796 2255.59469177 125.02399796 2255.59469177 125.97876358 2254.85691833 C133.47426515 2249.05911584 140.79476593 2243.0953131 147.99829483 2236.93894958 C150.86391552 2234.49482249 153.7821938 2232.1208985 156.71313858 2229.75535583 C161.47621076 2225.87972651 166.02178107 2221.80551295 170.54126358 2217.64988708 C172.67755607 2215.69380332 174.83594515 2213.77597886 177.02563858 2211.88035583 C181.9204843 2207.61966017 186.69079252 2203.22435433 191.45630264 2198.82029724 C193.0223084 2197.37846609 194.59730457 2195.94711184 196.17407608 2194.51707458 C205.40120248 2186.08655446 214.24381114 2177.27057588 223.08813858 2168.44285583 C223.72637558 2167.80720703 224.36461258 2167.17155823 225.02219009 2166.51664734 C234.15461381 2157.42675129 234.15461381 2157.42675129 242.77173233 2147.8525238 C244.44539936 2145.9013608 246.23949266 2144.10275535 248.08813858 2142.31785583 C251.2807517 2139.16805554 254.25975137 2135.90566095 257.18188858 2132.50535583 C259.39759506 2129.96274184 261.6791245 2127.48675385 263.96313858 2125.00535583 C268.0133515 2120.56534799 271.8434798 2115.99851302 275.61548233 2111.32176208 C278.49696813 2107.82118929 281.47540273 2104.41511537 284.46313858 2101.00535583 C289.11603727 2095.67900242 293.58722713 2090.25258842 297.91919327 2084.66282654 C301.44643644 2080.11329583 305.06600031 2075.64665899 308.71313858 2071.19285583 C313.56005045 2065.25329567 318.26884613 2059.23826567 322.80835342 2053.05857849 C324.29919592 2051.03078242 325.79718242 2049.008348 327.29516983 2046.98582458 C330.31106231 2042.90974647 333.31531777 2038.82526787 336.31372452 2034.73631287 C337.45074552 2033.18659767 338.5892799 2031.63799101 339.72974014 2030.09080505 C348.61236718 2018.0311201 356.96022911 2005.65063063 365.21167374 1993.15232849 C366.91475311 1990.57976129 368.62853992 1988.01496093 370.34985733 1985.45457458 C387.83723097 1959.4403463 404.23633879 1932.65165724 419.4548378 1905.24900818 C421.15472682 1902.19835532 422.87214757 1899.15804971 424.59204483 1896.11863708 C434.5763737 1878.40523789 443.90430805 1860.38434469 453.10376358 1842.2540741 C454.51868626 1839.47098927 455.94482794 1836.6936731 457.36938858 1833.91551208 C465.83755841 1817.30745021 473.53917126 1800.35835581 481.08813858 1783.31785583 C481.45677017 1782.48584656 481.82540176 1781.65383728 482.20520401 1780.7966156 C521.85803454 1691.16544351 553.21126034 1598.08725921 614.08813858 1010.31785583 C614.02261795 1009.22966553 613.95709732 1008.14147522 613.88959122 1007.02030945 C612.46020723 918.54733373 612.46020723 918.54733373 591.08813858 834.31785583 C612.67624631 845.69406815 633.45712357 858.14292382 653.01196671 872.76805115 C655.08542233 874.31582823 657.17116485 875.84562433 659.26001358 877.37254333 C671.05138579 886.0387955 682.05012112 895.48091856 692.87329483 905.32176208 C694.85445613 907.10725314 696.86906854 908.84038776 698.90063858 910.56785583 C703.3012894 914.38474685 707.36185107 918.5378812 711.43310928 922.69969177 C714.50312808 925.81876733 717.65851166 928.58934515 721.08813858 931.31785583 C722.12176137 932.4548409 723.12312999 933.62208432 724.08813858 934.81785583 C727.04175235 938.26582446 730.22079821 941.34536104 733.58813858 944.38035583 C739.65419292 949.88128992 745.5078615 955.58983149 751.31250381 961.3639679 C752.31339809 962.35879578 753.31610716 963.35180184 754.3208046 964.3427887 C761.05034516 970.98647602 767.18804655 977.92740199 773.08813858 985.31785583 C775.24898705 987.90373606 777.44277874 990.45955826 779.65063858 993.00535583 C780.20509659 993.64545593 780.7595546 994.28555603 781.33081436 994.9450531 C784.85890797 998.98781033 788.50316285 1002.84813308 792.34985733 1006.59129333 C794.69486915 1008.92049609 796.84919744 1011.38235768 798.99829483 1013.89207458 C800.63297215 1015.78952247 802.28696641 1017.66097916 803.95923233 1019.52488708 C811.70334141 1028.21534007 818.66238567 1037.27976394 825.33423233 1046.8134613 C827.17961287 1049.44847155 829.03982984 1052.07262863 830.90063858 1054.69676208 C840.0774926 1067.70041053 848.77349268 1080.97168043 857.26440811 1094.43162537 C858.93492412 1097.07537909 860.61622602 1099.71178893 862.30298233 1102.34519958 C869.8570024 1114.16579677 877.03710991 1126.19138625 884.08813858 1138.31785583 C884.5881337 1139.17604919 885.08812881 1140.03424255 885.6032753 1140.91844177 C917.51558204 1195.82065627 950.82916657 1256.23917663 958.08813858 1320.31785583 C958.22076347 1321.44377388 958.22076347 1321.44377388 958.35606766 1322.59243774 C959.03705062 1328.77019809 959.23484642 1334.85577877 959.19751358 1341.06785583 C959.19228683 1342.56385315 959.19228683 1342.56385315 959.1869545 1344.09007263 C959.12395927 1354.5082925 958.78694195 1364.90988668 958.33813858 1375.31785583 C958.29523697 1376.32720184 958.25233536 1377.33654785 958.2081337 1378.3764801 C954.65177904 1460.505549 945.3808369 1542.53384926 930.08813858 1623.31785583 C929.79420212 1624.87394562 929.79420212 1624.87394562 929.49432755 1626.46147156 C910.51129116 1726.65358757 884.05668172 1825.48713437 849.08813858 1921.31785583 C848.66108627 1922.48976471 848.66108627 1922.48976471 848.22540665 1923.68534851 C831.33370614 1969.97864953 812.49084359 2015.46522039 792.08813858 2060.31785583 C791.32944473 2061.98606384 791.32944473 2061.98606384 790.55542374 2063.68797302 C772.80545526 2102.5852528 753.82223029 2140.92232217 733.08813858 2178.31785583 C732.55398331 2179.28578064 732.01982803 2180.25370544 731.46948624 2181.2509613 C722.65694864 2197.20810506 713.51469001 2212.95335816 704.1310463 2228.58097839 C703.43278574 2229.74387419 702.73491297 2230.90700291 702.03741837 2232.07035828 C688.98823866 2253.83507794 675.56555202 2275.34893978 661.38013077 2296.39598083 C658.72836287 2300.34056074 656.09805259 2304.29950766 653.46313858 2308.25535583 C652.4293564 2309.80618507 651.39550878 2311.3569707 650.36157608 2312.90769958 C649.70294571 2313.89564514 649.70294571 2313.89564514 649.03100967 2314.90354919 C648.71986221 2315.37027039 648.40871475 2315.83699158 648.08813858 2316.31785583 C651.47779797 2316.31785583 652.19789448 2315.80905388 654.90454483 2313.93113708 C655.65912979 2313.4118866 656.41371475 2312.89263611 657.19116592 2312.35765076 C658.0027919 2311.78764343 658.81441788 2311.21763611 659.65063858 2310.63035583 C660.49835831 2310.0416571 661.34607803 2309.45295837 662.21948624 2308.84642029 C664.8494656 2307.01344135 667.47035972 2305.16820928 670.08813858 2303.31785583 C670.85206924 2302.77870544 671.61599991 2302.23955505 672.40307999 2301.68406677 C684.85770011 2292.862389 697.0044303 2283.63879351 709.08813858 2274.31785583 C709.77456436 2273.78885681 710.46099014 2273.25985779 711.16821671 2272.71482849 C718.60598181 2266.96867817 725.85824846 2261.0420586 733.00220108 2254.93504333 C735.84419423 2252.51093827 738.74103923 2250.16054184 741.65063858 2247.81785583 C746.72565329 2243.68978265 751.52829274 2239.31439992 756.32251358 2234.86863708 C758.52869805 2232.83383701 760.75446119 2230.84139345 763.02563858 2228.88035583 C774.96064396 2218.48873978 786.17471966 2207.38897719 797.34692764 2196.18943787 C799.97567267 2193.55529601 802.60977036 2190.92659079 805.24438858 2188.29832458 C806.94002207 2186.60203081 808.63534561 2184.90542713 810.33032608 2183.20848083 C811.10649277 2182.43433838 811.88265945 2181.66019592 812.68234634 2180.8625946 C816.81084643 2176.71646844 820.78226899 2172.49011889 824.59393692 2168.0501709 C826.81771777 2165.47201216 829.1425237 2162.99670664 831.46313858 2160.50535583 C835.73209052 2155.88486034 839.76845152 2151.12678832 843.71313858 2146.22410583 C845.92585137 2143.51644413 848.18933693 2140.86620674 850.48022842 2138.2250824 C856.11264911 2131.72955775 861.49565208 2125.08975968 866.65991592 2118.21434021 C868.25886592 2116.09115328 869.87078874 2113.97811586 871.48266983 2111.86473083 C885.13432419 2093.89552971 898.06979237 2075.42011726 910.08813858 2056.31785583 C910.58346085 2055.53297791 911.07878311 2054.74809998 911.58911514 2053.93943787 C924.66262937 2033.17394623 936.97168479 2011.99363466 948.48804092 1990.32566833 C949.5463553 1988.33628276 950.60911411 1986.34925454 951.67651749 1984.36473083 C984.74969593 1922.83702144 1009.14444917 1855.99834353 1026.08813858 1788.31785583 C1026.28129654 1787.54758057 1026.4744545 1786.7773053 1026.67346573 1785.98368835 C1040.47941827 1730.6951223 1048.81737312 1674.20397495 1052.08813858 1617.31785583 C1052.15912262 1616.10724487 1052.15912262 1616.10724487 1052.23154068 1614.87217712 C1053.15256846 1598.69026591 1053.2894343 1582.52297641 1053.27563858 1566.31785583 C1053.27473221 1564.34030304 1053.27473221 1564.34030304 1053.27380753 1562.32279968 C1053.25296246 1540.59503004 1052.80279107 1518.98016428 1051.08813858 1497.31785583 C1051.02497452 1496.50860657 1050.96181046 1495.6993573 1050.89673233 1494.86558533 C1044.22653702 1410.18434965 1028.52553805 1321.57894408 990.28686905 1228.59959412 C988.85919111 1225.88206296 987.50573554 1223.13280955 986.15454483 1220.37644958 C979.42801063 1206.66557693 972.30328752 1193.27537947 964.66138077 1180.05418396 C963.12146382 1177.37581816 961.60502645 1174.68557411 960.09595108 1171.98973083 C941.55107067 1138.95003669 920.01550123 1107.46146403 897.08813858 1077.31785583 C896.45077774 1076.47577576 896.45077774 1076.47577576 895.80054092 1075.61668396 C889.24998879 1066.96569716 882.44973201 1058.53330876 875.57641983 1050.13816833 C874.2740448 1048.54523719 872.97747826 1046.94756063 871.68188858 1045.34910583 C863.02854167 1034.68918572 854.10316833 1024.28906614 844.75610733 1014.23191833 C842.69605316 1011.98184453 840.67664104 1009.71204783 838.67407608 1007.41160583 C827.53782924 994.64628688 815.55005353 982.67662909 803.58813858 970.69285583 C802.9324791 970.03460815 802.27681961 969.37636047 801.60129166 968.69816589 C792.46875357 959.50380136 792.46875357 959.50380136 782.84643936 950.83103943 C779.5449342 947.98978297 776.4302389 944.9449209 773.27563858 941.94285583 C767.89565288 936.85721965 762.4431007 932.02707047 756.65063858 927.41551208 C753.92666899 925.18567722 751.35478673 922.83831465 748.77563858 920.44285583 C744.14385924 916.18056317 739.32499285 912.27535091 734.35278702 908.42601013 C730.5061595 905.44545154 726.74641278 902.39199794 723.02563858 899.25535583 C716.85666652 894.08059064 710.50887804 889.17212712 704.08813858 884.31785583 C703.47986221 883.85653259 702.87158585 883.39520935 702.24487686 882.91990662 C697.54573719 879.35907535 692.82193224 875.8324406 688.08813858 872.31785583 C687.44940811 871.84074158 686.81067764 871.36362732 686.15259171 870.87205505 C670.80851543 859.44188656 654.78157071 848.99073003 638.81592178 838.4584198 C637.33846848 837.48310646 635.86255898 836.50545518 634.38696671 835.52732849 C613.20926635 821.49733483 591.29333289 808.56998337 569.01544571 796.37528992 C566.74545114 795.12983734 564.47929159 793.87750595 562.2126503 792.6259613 C549.2641963 785.49644787 536.18957651 778.66650188 522.96313858 772.06785583 C521.97401474 771.57373199 520.9848909 771.07960815 519.96579361 770.57051086 C501.24715132 761.23822113 482.34035228 752.48811802 463.08813858 744.31785583 C461.95296799 743.83406464 461.95296799 743.83406464 460.79486465 743.34049988 C376.69532103 707.51326095 288.4954412 681.41899581 34.08813858 646.31785583 C32.49943378 646.23086715 30.91072939 646.14387118 29.3220253 646.05686951 C10.97899692 645.11442797 -7.36921965 645.13042321 -25.73119736 645.1325531 C-29.40279776 645.13263362 -33.07427139 645.12579527 -36.74584579 645.11204529 C-71.36660235 644.98466534 -105.9107942 646.05615092 -140.41186142 649.06785583 Z M-1131.91186142 1373.31785583 C-1156.07086469 1457.5205425 -1169.25441061 1542.44842494 -1153.91186142 1776.31785583 C-1153.78468735 1776.98637573 -1153.65751328 1777.65489563 -1153.52648544 1778.34367371 C-1152.66882866 1782.82156635 -1151.77020861 1787.28995164 -1150.84936142 1791.75535583 C-1150.51787094 1793.4061615 -1150.51787094 1793.4061615 -1150.17968369 1795.09031677 C-1147.14716668 1809.22968666 -1140.35475902 1821.79929915 -1133.91186142 1834.63035583 C-1133.49079117 1835.4713382 -1133.06972092 1836.31232056 -1132.63589096 1837.17878723 C-1126.28953906 1849.83708899 -1119.66497638 1862.25586455 -1112.53588486 1874.4931488 C-1110.68114614 1877.71914503 -1108.87440828 1880.97047829 -1107.07592392 1884.22801208 C-1106.59253304 1885.10146019 -1106.59253304 1885.10146019 -1106.09937668 1885.99255371 C-1104.52882206 1888.83043816 -1102.96243684 1891.67047062 -1101.40282822 1894.51438904 C-1100.84506699 1895.51945496 -1100.28730576 1896.52452087 -1099.71264267 1897.56004333 C-1099.21933456 1898.45578064 -1098.72602646 1899.35151794 -1098.21776962 1900.2743988 C-1097.07268827 1902.45112833 -1097.07268827 1902.45112833 -1094.91186142 1903.31785583 C-1095.61226964 1896.92098236 -1096.7838727 1890.70039399 -1098.09936142 1884.40379333 C-1098.55149787 1882.20446172 -1099.00296469 1880.00499237 -1099.45385361 1877.80540466 C-1099.69148422 1876.64860199 -1099.92911484 1875.49179932 -1100.17394638 1874.29994202 C-1115.4158785 1799.79412522 -1125.67613755 1724.4196083 -1131.16186142 1648.56785583 C-1131.27755981 1646.99143311 -1131.27755981 1646.99143311 -1131.39559555 1645.38316345 C-1131.92486402 1638.06525725 -1132.38360122 1630.74462571 -1132.79404831 1623.41910172 C-1132.87564561 1621.9637798 -1132.95815539 1620.50850888 -1133.04139328 1619.05327988 C-1134.81058956 1587.99523315 -1135.22969249 1556.99385401 -1135.17260361 1525.88938904 C-1135.16121653 1519.63717304 -1135.16798883 1513.38512759 -1135.17949104 1507.1329174 C-1135.24062085 1467.82099015 -1134.10462763 1428.6701989 -1131.27904892 1389.45848083 C-1130.91658059 1384.06989641 -1130.81539492 1378.71691759 -1130.91186142 1373.31785583 C-1131.24186142 1373.31785583 -1131.57186142 1373.31785583 -1131.91186142 1373.31785583 Z " fill="#E34E03" transform="translate(1744.9118614196777,0.6821441650390625)"/>
<path d="M0 0 C-3.39263021 3.52696894 -7.00866168 5.99989666 -11.1875 8.5 C-20.08057874 13.94372247 -28.54418671 19.9062833 -37 26 C-38.46867648 27.05348791 -39.937427 28.10687262 -41.40625 29.16015625 C-45.94918011 32.42409596 -50.47673244 35.70888381 -55 39 C-55.79229004 39.57540527 -56.58458008 40.15081055 -57.40087891 40.74365234 C-67.60288454 48.16310653 -77.62277615 55.74778741 -87.40869141 63.70849609 C-89.67730346 65.54969858 -91.96396471 67.36800253 -94.25 69.1875 C-103.38471897 76.50129476 -112.38711511 83.96288519 -121.29541016 91.54980469 C-123.02119329 93.01803039 -124.75074272 94.48173533 -126.48046875 95.9453125 C-133.4707547 101.87817084 -140.2887965 107.96032903 -146.99609375 114.2109375 C-149.57260813 116.61135625 -152.18386736 118.96911131 -154.8125 121.3125 C-168.25220587 133.38983254 -181.15292285 145.99174618 -193.91235352 158.78198242 C-196.58690335 161.46195281 -199.26683976 164.13645484 -201.94726562 166.81054688 C-203.67480033 168.53874152 -205.40202526 170.26724589 -207.12890625 171.99609375 C-207.91753555 172.78269882 -208.70616486 173.56930389 -209.51869202 174.37974548 C-213.67622961 178.55478802 -217.66670853 182.81424642 -221.51213074 187.27854919 C-223.24142394 189.27932524 -225.03575612 191.20581756 -226.8671875 193.11328125 C-227.52050049 193.79817627 -228.17381348 194.48307129 -228.84692383 195.1887207 C-229.51618896 195.88956787 -230.1854541 196.59041504 -230.875 197.3125 C-236.12173136 202.84235211 -241.12207368 208.42512515 -245.86328125 214.39453125 C-248.3009776 217.36700559 -250.88191356 220.18769883 -253.5 223 C-257.75543919 227.57916676 -261.77323854 232.29287456 -265.6953125 237.1640625 C-268.20794695 240.25588048 -270.78658385 243.28427573 -273.375 246.3125 C-278.13021676 251.89658494 -282.68190679 257.61994372 -287.1875 263.40625 C-289.57170715 266.46498074 -291.99582062 269.48942322 -294.43139648 272.50732422 C-301.16226179 280.85407728 -307.61996314 289.38323864 -314 298 C-314.55977539 298.7532959 -315.11955078 299.5065918 -315.69628906 300.28271484 C-323.39174129 310.63999434 -330.96710452 321.07114567 -338.35595703 331.64941406 C-340.15786073 334.22570287 -341.96772228 336.79631465 -343.77734375 339.3671875 C-364.85067413 369.38805512 -384.21296492 400.51036734 -403 432 C-403.63808594 433.06710205 -403.63808594 433.06710205 -404.2890625 434.15576172 C-412.12920576 447.28484033 -419.5862588 460.62656477 -427 474 C-427.51320801 474.92441895 -428.02641602 475.84883789 -428.55517578 476.80126953 C-435.48365163 489.3072713 -442.13580298 501.9456611 -448.66186523 514.66503906 C-449.84909493 516.9765283 -451.04123979 519.28550027 -452.23852539 521.59179688 C-453.42438688 523.88627039 -454.59257239 526.18995636 -455.74389648 528.50195312 C-459.20627551 535.28197995 -462.63454576 540.44580315 -468.4375 545.375 C-469.05431641 545.92542969 -469.67113281 546.47585938 -470.30664062 547.04296875 C-472.77605149 549.2374296 -475.28183408 551.38801551 -477.79626465 553.53068542 C-483.19466663 558.17792806 -488.2560531 563.11069896 -493.28515625 568.15234375 C-494.14507675 569.01130753 -495.00499725 569.8702713 -495.89097595 570.75526428 C-497.69815861 572.56177015 -499.50409392 574.36952462 -501.30883789 576.1784668 C-504.05438393 578.9293681 -506.80522546 581.67489221 -509.55664062 584.41992188 C-511.3206332 586.18457532 -513.0843155 587.94953897 -514.84765625 589.71484375 C-515.66138199 590.52654526 -516.47510773 591.33824677 -517.31349182 592.17454529 C-521.53357399 596.41180334 -525.60602603 600.71899678 -529.49830627 605.26019287 C-531.8784368 608.01772458 -534.38337782 610.656139 -536.875 613.3125 C-541.33826707 618.10995628 -545.56974429 623.03162373 -549.671875 628.14453125 C-551.81387324 630.77171365 -554.01082587 633.3333903 -556.23779297 635.88793945 C-562.34499813 642.90323889 -568.04696658 650.16274191 -573.6484375 657.5859375 C-575.89141967 660.55594619 -578.16685234 663.4956515 -580.4765625 666.4140625 C-587.75363445 675.61640861 -594.56550316 685.01805242 -601.1171875 694.75 C-603.33448225 698.04082659 -605.62507294 701.25768134 -608 704.4375 C-632.49090796 737.83882146 -652.39838375 775.09581257 -671 812 C-671.55010742 813.08941895 -672.10021484 814.17883789 -672.66699219 815.30126953 C-682.76880718 835.44041984 -691.46771203 856.15886703 -700 877 C-700.41255035 878.00595215 -700.41255035 878.00595215 -700.83343506 879.03222656 C-704.40547161 887.76658064 -707.70465158 896.56773741 -710.75 905.5 C-711.17120117 906.73121582 -711.59240234 907.96243164 -712.02636719 909.23095703 C-713.36264571 913.15004813 -714.68447305 917.07389896 -716 921 C-716.32991943 921.98462219 -716.32991943 921.98462219 -716.66650391 922.98913574 C-722.14225609 939.3651701 -727.1923649 955.76646559 -731.36621094 972.53027344 C-732.12656768 975.49320443 -732.97373524 978.42509179 -733.83276367 981.3605957 C-737.63974433 994.43527654 -740.3427112 1007.787719 -743.16992188 1021.10058594 C-743.92212197 1024.6341565 -744.68571677 1028.16502086 -745.453125 1031.6953125 C-747.90854023 1043.08771697 -749.96256596 1054.45689515 -751.56689453 1065.99804688 C-752.0644366 1069.4466248 -752.60732501 1072.88673351 -753.15234375 1076.328125 C-756.73209347 1099.13617502 -759.1390745 1121.99099764 -761 1145 C-761.06165344 1145.74050598 -761.12330688 1146.48101196 -761.18682861 1147.24395752 C-764.86329582 1191.53276892 -764.95850794 1237.52342088 -761.18035889 1281.79418945 C-760.90531402 1285.1580207 -760.66920448 1288.52449569 -760.42805481 1291.89089966 C-757.68565854 1329.85580165 -752.75490729 1367.58576469 -745.57519531 1404.97265625 C-744.99425366 1408.03024389 -744.44366853 1411.09210972 -743.8984375 1414.15625 C-737.22399145 1451.04286272 -726.96181907 1487.19186281 -716 1523 C-715.61593994 1524.26166992 -715.23187988 1525.52333984 -714.83618164 1526.82324219 C-711.91685338 1536.34246763 -708.71778002 1545.74967901 -705.39819336 1555.13623047 C-704.56349366 1557.49718943 -703.73357502 1559.85978824 -702.90429688 1562.22265625 C-697.88889204 1576.47858307 -692.65526458 1590.63361374 -686.9375 1604.625 C-686.47996338 1605.74801514 -686.02242676 1606.87103027 -685.55102539 1608.02807617 C-681.26646342 1618.47712435 -676.78460002 1628.8380637 -672.23999023 1639.17626953 C-671.71606689 1640.3723584 -671.19214355 1641.56844727 -670.65234375 1642.80078125 C-669.95612915 1644.38113159 -669.95612915 1644.38113159 -669.24584961 1645.9934082 C-668.01671101 1648.95967155 -666.97639189 1651.9422389 -666 1655 C-665.34 1655 -664.68 1655 -664 1655 C-663.74347656 1655.65379639 -663.48695313 1656.30759277 -663.22265625 1656.98120117 C-659.31013142 1666.67441556 -654.68808739 1675.97615497 -650 1685.3125 C-649.57892975 1686.15348236 -649.1578595 1686.99446472 -648.72402954 1687.8609314 C-642.3734037 1700.52775785 -635.74562736 1712.95839503 -628.61523438 1725.20605469 C-625.50424993 1730.58726781 -622.47524848 1736.01472607 -619.4375 1741.4375 C-618.85315186 1742.47495361 -618.26880371 1743.51240723 -617.66674805 1744.58129883 C-616.0964797 1747.37969463 -614.54536022 1750.18779454 -613 1753 C-612.6066748 1753.6904541 -612.21334961 1754.3809082 -611.80810547 1755.09228516 C-608.79564085 1760.63708957 -607.54842956 1766.35793752 -606.25 1772.5 C-605.73696334 1774.81567913 -605.22120946 1777.13075748 -604.703125 1779.4453125 C-604.43048828 1780.66766602 -604.15785156 1781.89001953 -603.87695312 1783.14941406 C-602.33673895 1789.91229211 -600.68002412 1796.64566171 -599 1803.375 C-598.82925964 1804.05913971 -598.65851929 1804.74327942 -598.48260498 1805.44815063 C-595.85319276 1815.94388517 -592.92857537 1826.31768645 -589.71777344 1836.65039062 C-588.42076929 1840.89609399 -587.21286472 1845.16714819 -586 1849.4375 C-585.75306396 1850.30342773 -585.50612793 1851.16935547 -585.25170898 1852.06152344 C-583.97704574 1856.53761808 -582.71497414 1861.01699272 -581.46484375 1865.5 C-578.99151326 1874.32814203 -576.38722422 1882.9912801 -573.19921875 1891.58984375 C-571.89712365 1895.29254414 -570.81239047 1899.03650159 -569.75 1902.8125 C-566.73484455 1913.42604474 -562.85198365 1923.73029006 -559.06054688 1934.08544922 C-557.89184807 1937.29721862 -556.75018713 1940.51749264 -555.62402344 1943.74438477 C-549.97894749 1959.86953402 -543.78299018 1975.76461199 -537.4375 1991.625 C-537.04326843 1992.61078033 -536.64903687 1993.59656067 -536.24285889 1994.61221313 C-521.91124035 2030.39933514 -505.93855455 2065.37689239 -489 2100 C-488.21061035 2101.61382568 -488.21061035 2101.61382568 -487.40527344 2103.26025391 C-480.76089998 2116.80001048 -473.78061154 2130.11315399 -466.47802734 2143.30859375 C-465.02415546 2145.95601425 -463.59596539 2148.61562804 -462.17578125 2151.28125 C-454.93783917 2164.82256472 -447.08288954 2177.93666348 -439.04946899 2191.01399231 C-436.34326197 2195.42427205 -433.68746704 2199.86273659 -431.046875 2204.3125 C-426.03880983 2212.74713608 -420.81384067 2220.97711571 -415.29492188 2229.08544922 C-413.91726005 2231.12233158 -412.55834158 2233.17077656 -411.203125 2235.22265625 C-396.58148072 2257.34940994 -381.30634046 2279.07964681 -365 2300 C-363.14241342 2302.39320165 -361.28933854 2304.78984942 -359.4375 2307.1875 C-359.00735596 2307.74091064 -358.57721191 2308.29432129 -358.1340332 2308.86450195 C-355.11304829 2312.77390341 -355.11304829 2312.77390341 -354 2315 C-362.63925513 2312.40245113 -370.70283411 2308.64513349 -378.875 2304.875 C-379.63477142 2304.52607697 -380.39454285 2304.17715393 -381.17733765 2303.81765747 C-397.88039356 2296.14356197 -414.42757332 2288.15705228 -430.91357422 2280.02856445 C-432.97304548 2279.01328802 -435.03334937 2277.99971691 -437.09375 2276.98632812 C-452.3429507 2269.47883181 -467.4275782 2261.73777328 -482.29296875 2253.49023438 C-485.13293221 2251.92682015 -487.98595375 2250.38993386 -490.84375 2248.859375 C-503.97984697 2241.82168407 -516.90739633 2234.49084741 -529.74121094 2226.91699219 C-533.25063215 2224.8525649 -536.76887767 2222.8038038 -540.2890625 2220.7578125 C-553.29717052 2213.18994579 -566.20169197 2205.51015907 -578.86083984 2197.36669922 C-580.93503709 2196.04150449 -583.02095248 2194.73774578 -585.11328125 2193.44140625 C-616.55196495 2173.91591087 -647.13117783 2152.83858047 -677 2131 C-678.15943115 2130.15356934 -678.15943115 2130.15356934 -679.34228516 2129.29003906 C-694.89217006 2117.92629599 -710.19862647 2106.26747186 -725.31152344 2094.32958984 C-726.9976361 2093.00186145 -728.68926782 2091.681513 -730.3828125 2090.36328125 C-743.66424297 2080.01219211 -756.60393803 2069.24798568 -769.42626953 2058.33544922 C-771.05997607 2056.94910501 -772.69917001 2055.56949608 -774.33984375 2054.19140625 C-780.230714 2049.23882895 -786.04008937 2044.22204444 -791.73828125 2039.046875 C-793.80673875 2037.1749031 -795.89560914 2035.3313661 -798 2033.5 C-801.85110578 2030.14381544 -805.64934814 2026.73125807 -809.44140625 2023.30859375 C-811.09252333 2021.8188072 -812.74600144 2020.33163123 -814.40234375 2018.84765625 C-832.59078092 2002.54586411 -832.59078092 2002.54586411 -840.28956604 1994.67799377 C-841.9938325 1993.00605052 -843.76016932 1991.46111081 -845.57788086 1989.91381836 C-850.58368839 1985.55603724 -855.25551058 1980.88811361 -859.94140625 1976.19140625 C-860.86791489 1975.26585434 -861.79442352 1974.34030243 -862.74900818 1973.38670349 C-864.69782361 1971.43935145 -866.64484737 1969.49023087 -868.59057617 1967.53979492 C-871.06363861 1965.06103605 -873.54116533 1962.58679569 -876.02006626 1960.1138773 C-878.41296201 1957.72549855 -880.80200318 1955.3332792 -883.19140625 1952.94140625 C-884.07075333 1952.0640834 -884.9501004 1951.18676056 -885.85609436 1950.28285217 C-890.25947612 1945.86283833 -894.52514852 1941.38590163 -898.57859802 1936.6415863 C-900.44786144 1934.48276193 -902.45110938 1932.48772971 -904.5 1930.5 C-907.80607347 1927.23275625 -910.90745461 1923.87984369 -913.9296875 1920.3515625 C-916.12705289 1917.85568709 -918.38946916 1915.43194129 -920.66552734 1913.00805664 C-925.92754479 1907.40410576 -930.95063951 1901.71550157 -935.7578125 1895.7109375 C-938.23907733 1892.71094135 -940.84886537 1889.84868089 -943.5 1887 C-947.73406818 1882.44416307 -951.72932418 1877.74727905 -955.62890625 1872.90234375 C-958.31831171 1869.61036968 -961.09170396 1866.39995032 -963.875 1863.1875 C-969.34010685 1856.85629064 -974.53255579 1850.34278411 -979.65429688 1843.73242188 C-981.41570961 1841.46482666 -983.19231673 1839.20940994 -984.96972656 1836.9543457 C-986.81548655 1834.61157289 -988.65595034 1832.26466612 -990.49609375 1829.91748047 C-991.53697024 1828.59036295 -992.57869328 1827.26390911 -993.62109375 1825.93798828 C-1005.8937582 1810.31726728 -1017.71221261 1794.39449564 -1029.10546875 1778.12109375 C-1030.94388783 1775.49539297 -1032.79867395 1772.88332643 -1034.67578125 1770.28515625 C-1049.64201805 1749.49007695 -1063.55448698 1727.80398175 -1077 1706 C-1077.957854 1704.44732422 -1077.957854 1704.44732422 -1078.93505859 1702.86328125 C-1088.64044407 1687.10345152 -1098.04879952 1671.2031705 -1107 1655 C-1107.50337891 1654.09088867 -1108.00675781 1653.18177734 -1108.52539062 1652.24511719 C-1118.39171459 1634.39327684 -1127.93677804 1616.36155196 -1136.97265625 1598.07421875 C-1138.41129108 1595.16627914 -1139.88299645 1592.27745987 -1141.37109375 1589.39453125 C-1148.23701915 1576.00487079 -1154.39338843 1562.34157564 -1160.4296875 1548.56347656 C-1161.08561661 1547.06821857 -1161.74185944 1545.57309815 -1162.3984375 1544.078125 C-1162.71516418 1543.35683914 -1163.03189087 1542.63555328 -1163.35821533 1541.89241028 C-1165.02210669 1538.12824325 -1166.75124189 1534.42366438 -1168.6328125 1530.76171875 C-1171.6491276 1524.85741587 -1174.05990863 1518.72250246 -1176.5 1512.5625 C-1176.75467041 1511.92161438 -1177.00934082 1511.28072876 -1177.27172852 1510.62042236 C-1188.2081348 1483.07142296 -1198.22273975 1455.24347412 -1207.33978271 1427.04058838 C-1207.9631232 1425.11397819 -1208.5900906 1423.18854256 -1209.21728516 1421.26318359 C-1225.33963541 1371.56348012 -1237.20087413 1320.47470249 -1246 1269 C-1246.14072937 1268.17860535 -1246.28145874 1267.35721069 -1246.42645264 1266.51092529 C-1253.50966991 1224.96068359 -1257.61566968 1183.06797075 -1260 1141 C-1260.07202637 1139.74832031 -1260.14405273 1138.49664063 -1260.21826172 1137.20703125 C-1265.29389239 1043.61078608 -1256.18625481 948.62861167 -1129.203125 589.44140625 C-1126.91834028 585.58166637 -1124.69768326 581.696632 -1122.53881836 577.76538086 C-1107.52374778 550.4418341 -1089.32255698 524.21709603 -1071 499 C-1070.44650879 498.236875 -1069.89301758 497.47375 -1069.32275391 496.6875 C-1058.16548406 481.33972071 -1046.47454812 466.49594002 -1034.47216797 451.80419922 C-1033.17728489 450.21726954 -1031.88709522 448.62651263 -1030.59765625 447.03515625 C-1022.33729588 436.86281373 -1013.80979374 426.92255446 -1005.00390625 417.21875 C-1003.18688018 415.20691607 -1001.40055608 413.17339566 -999.625 411.125 C-995.37063035 406.25040334 -991.00121185 401.48272388 -986.60595703 396.73535156 C-985.52712168 395.56959272 -984.44999649 394.40224911 -983.37451172 393.23339844 C-974.14598054 383.21872325 -964.61848704 373.51311462 -955 363.875 C-954.41573242 363.28814423 -953.83146484 362.70128845 -953.22949219 362.09664917 C-941.74705961 350.5740781 -941.74705961 350.5740781 -935.63476562 345.42041016 C-933.83586078 343.85738322 -932.16820121 342.20111484 -930.5 340.5 C-927.55399785 337.50765625 -924.47016993 334.74675828 -921.2890625 332.0078125 C-919.06426861 330.05637213 -916.88829499 328.05816352 -914.71899414 326.04541016 C-909.51427101 321.21820162 -904.1850989 316.63678692 -898.65234375 312.18359375 C-896.00732363 310.00602932 -893.46787475 307.74681237 -890.9375 305.4375 C-887.0274559 301.88235818 -883.01082317 298.53782974 -878.859375 295.26953125 C-876.72691471 293.57696372 -874.61578894 291.86850258 -872.515625 290.13671875 C-863.51412934 282.72494472 -854.3026981 275.65134817 -844.9453125 268.6953125 C-841.10010836 265.83414664 -837.29872532 262.92242759 -833.51269531 259.98364258 C-825.37587329 253.6761696 -817.00341985 247.80382308 -808.47265625 242.04296875 C-804.67635319 239.47560994 -800.95402352 236.82286096 -797.25 234.125 C-787.4334735 227.02533812 -777.1846499 220.55338389 -767 214 C-766.21560547 213.49243164 -765.43121094 212.98486328 -764.62304688 212.46191406 C-740.7005452 196.99825615 -715.98404053 182.66836363 -691 169 C-689.94022949 168.41863281 -688.88045898 167.83726562 -687.78857422 167.23828125 C-657.18103534 150.49786847 -625.95590236 134.99771397 -594 121 C-592.85174744 120.49693329 -592.85174744 120.49693329 -591.68029785 119.98370361 C-505.24510502 82.18685198 -415.10587044 53.11804234 -93 2 C-92.18132446 1.94779297 -91.36264893 1.89558594 -90.51916504 1.84179688 C-60.34223898 -0.06886296 -30.22981152 -0.24604298 0 0 Z " fill="#15A6DF" transform="translate(1262,150)"/>
<path d="M0 0 C1.02891924 0.00062124 1.02891924 0.00062124 2.07862473 0.00125504 C94.48709072 0.07080275 186.38414971 8.91724735 313.81298828 35.33251953 C318.11539576 36.34740778 322.4282636 37.30892536 326.74438477 38.26342773 C336.0673122 40.33252787 345.26766443 42.67947522 354.44238281 45.32568359 C358.20668938 46.40882691 361.97447971 47.47954073 365.7421875 48.55078125 C374.64406908 51.08441246 383.54494828 53.6212827 392.4375 56.1875 C393.14045197 56.3900943 393.84340393 56.5926886 394.56765747 56.80142212 C405.52545768 59.96702288 416.4037598 63.34674966 427.25 66.875 C428.45112427 67.2652536 428.45112427 67.2652536 429.67651367 67.66339111 C444.70398488 72.55433762 459.60952909 77.71800692 474.4375 83.1875 C475.81010109 83.68945659 477.18282707 84.19107176 478.55566406 84.69238281 C530.85824136 103.8246804 582.75942074 126.34317877 631.81933594 152.78271484 C634.86473507 154.41673448 637.92047278 156.03059686 640.9765625 157.64453125 C655.25801428 165.20814778 669.32832211 173.05963396 683.234375 181.29833984 C686.74120514 183.36662122 690.26002488 185.41340256 693.78125 187.45703125 C695.69172099 188.56824084 697.60191793 189.67991979 699.51199341 190.79180908 C700.71917929 191.49369215 701.92704399 192.19440952 703.13571167 192.89373779 C719.13741689 202.15852638 734.46007492 212.47955213 749.83325195 222.74121094 C752.39614259 224.45160995 754.9606929 226.15949968 757.52539062 227.8671875 C760.77167552 230.02931349 764.01117077 232.20105263 767.24560547 234.38085938 C769.71544475 236.04428948 772.19456578 237.66669272 774.71142578 239.25976562 C779.6969901 242.48308855 782.08236898 244.78794904 784.34863281 250.25488281 C786.55594975 254.17262292 790.59111162 256.22381252 794.3125 258.5625 C796.0398101 259.69547562 797.76636821 260.82959852 799.4921875 261.96484375 C800.3387793 262.51382324 801.18537109 263.06280273 802.05761719 263.62841797 C805.24284317 265.71508735 808.34922011 267.89822171 811.4375 270.125 C811.98486816 270.5183252 812.53223633 270.91165039 813.09619141 271.31689453 C814.87981236 272.6027608 816.65922504 273.89425091 818.4375 275.1875 C819.50387695 275.962146 819.50387695 275.962146 820.59179688 276.75244141 C837.34600533 288.94799629 853.6765532 301.63143902 869.70214844 314.76806641 C871.24737406 316.03198618 872.79902781 317.28803789 874.3515625 318.54296875 C884.93098233 327.10949012 895.17345944 336.08061159 905.2578125 345.22265625 C907.2358952 347.00576664 909.236058 348.75764769 911.25 350.5 C919.25409579 357.48126002 927.05375322 364.69772091 934.49438477 372.27685547 C936.27549068 374.02819796 938.10380407 375.6504411 940.0078125 377.265625 C945.24058092 381.81541246 950.10929602 386.71335082 955 391.625 C955.90685547 392.52798828 956.81371094 393.43097656 957.74804688 394.36132812 C962.31273431 398.93263585 966.72667693 403.56257462 970.93334961 408.46508789 C972.99149382 410.82188182 975.19642244 413.00539816 977.4375 415.1875 C980.96504647 418.6779144 984.31134474 422.23394314 987.53515625 426.00390625 C989.44464698 428.19570362 991.40815822 430.33134864 993.38549805 432.46191406 C998.22016686 437.67293434 1002.80740596 443.00962602 1007.265625 448.55078125 C1009.37506349 451.11170028 1011.56637648 453.55873455 1013.8125 456 C1017.8744798 460.45758131 1021.59238971 465.1191341 1025.28515625 469.88085938 C1028.21778518 473.65661913 1031.22314952 477.34985981 1034.3125 481 C1043.15409733 491.54297726 1051.32196571 502.62706251 1059.5 513.6875 C1060.2748877 514.73369507 1060.2748877 514.73369507 1061.06542969 515.80102539 C1071.16427611 529.52846834 1080.81478638 543.56060898 1090.25 557.75 C1090.76907928 558.52986267 1091.28815857 559.30972534 1091.82296753 560.11322021 C1105.53242061 580.72790159 1118.45951223 601.68074371 1130.72119141 623.19287109 C1132.31180297 625.96818282 1133.92132528 628.73101549 1135.54296875 631.48828125 C1140.54418773 639.99795672 1145.24552487 648.56060018 1149.578125 657.4296875 C1152.35912032 663.10681489 1155.40017163 668.64437573 1158.4375 674.1875 C1158.4375 672.2075 1158.4375 670.2275 1158.4375 668.1875 C1161.31421384 671.70056596 1163.29880962 675.588167 1165.32421875 679.625 C1165.8852253 680.73451271 1165.8852253 680.73451271 1166.45756531 681.86643982 C1167.68606137 684.30382518 1168.90657951 686.74506342 1170.125 689.1875 C1170.54589905 690.02950958 1170.9667981 690.87151917 1171.40045166 691.73904419 C1189.33849071 727.70456239 1206.03488586 765.06871348 1219.375 803 C1219.69017578 803.86947266 1220.00535156 804.73894531 1220.33007812 805.63476562 C1220.76803711 806.87709961 1220.76803711 806.87709961 1221.21484375 808.14453125 C1221.47515381 808.87647705 1221.73546387 809.60842285 1222.00366211 810.36254883 C1222.4375 812.1875 1222.4375 812.1875 1221.4375 814.1875 C1220.70994466 812.73238932 1219.98244271 811.27725193 1219.25512695 809.82202148 C1218.56563545 808.44354091 1217.87532587 807.06546931 1217.18432617 805.68774414 C1214.92670579 801.18254149 1212.6889951 796.66828063 1210.46875 792.14453125 C1203.73624766 778.47711554 1196.63465771 765.11389716 1189.01074219 751.92382812 C1187.47082524 749.24546233 1185.95438787 746.55521827 1184.4453125 743.859375 C1165.90043209 710.81968086 1144.36486265 679.3311082 1121.4375 649.1875 C1120.80013916 648.34541992 1120.80013916 648.34541992 1120.14990234 647.48632812 C1113.59935021 638.83534132 1106.79909343 630.40295293 1099.92578125 622.0078125 C1098.62340621 620.41488135 1097.32683968 618.8172048 1096.03125 617.21875 C1087.37790309 606.55882989 1078.45252975 596.1587103 1069.10546875 586.1015625 C1067.0466337 583.85282026 1065.02857547 581.5843553 1063.02734375 579.28515625 C1052.04538561 566.6962629 1040.23362553 554.88097437 1028.4375 543.0625 C1027.489888 542.11100571 1027.489888 542.11100571 1026.52313232 541.14028931 C1017.60558684 532.17659897 1017.60558684 532.17659897 1008.21337891 523.71826172 C1004.90779347 520.86893251 1001.78567727 517.82034817 998.625 514.8125 C993.2450143 509.72686381 987.79246212 504.89671464 982 500.28515625 C979.27603041 498.05532139 976.70414815 495.70795882 974.125 493.3125 C969.49322066 489.05020733 964.67435427 485.14499507 959.70214844 481.2956543 C955.85552092 478.3150957 952.0957742 475.2616421 948.375 472.125 C942.20602794 466.9502348 935.85823946 462.04177128 929.4375 457.1875 C928.82922363 456.72617676 928.22094727 456.26485352 927.59423828 455.78955078 C922.89509861 452.22871951 918.17129366 448.70208476 913.4375 445.1875 C912.79876953 444.71038574 912.16003906 444.23327148 911.50195312 443.74169922 C896.15787685 432.31153072 880.13093213 421.86037419 864.1652832 411.32806396 C862.6878299 410.35275063 861.2119204 409.37509935 859.73632812 408.39697266 C838.55862777 394.366979 816.64269431 381.43962754 794.36480713 369.24493408 C792.09481256 367.99948151 789.82865301 366.74715011 787.56201172 365.49560547 C774.61355772 358.36609204 761.53893793 351.53614605 748.3125 344.9375 C747.32337616 344.44337616 746.33425232 343.94925232 745.31515503 343.44015503 C726.59651274 334.10786529 707.6897137 325.35776219 688.4375 317.1875 C687.30232941 316.7037088 687.30232941 316.7037088 686.14422607 316.21014404 C602.04468245 280.38290511 513.84480262 254.28863998 259.4375 219.1875 C257.8487952 219.10051132 256.2600908 219.01351534 254.67138672 218.92651367 C236.32835834 217.98407213 217.98014177 218.00006737 199.61816406 218.00219727 C195.94656366 218.00227778 192.27509002 217.99543943 188.60351562 217.98168945 C153.98275907 217.85430951 119.43856722 218.92579508 84.9375 221.9375 C83.96987732 222.02020142 83.00225464 222.10290283 82.00531006 222.18811035 C-14.87689909 230.52720082 -110.71732235 249.1463827 -212.5625 282.1875 C-213.33384277 282.44017639 -214.10518555 282.69285278 -214.89990234 282.95318604 C-261.9604676 298.38374401 -307.78804463 317.03899132 -352.5625 338.1875 C-353.55233887 338.6515625 -354.54217773 339.115625 -355.56201172 339.59375 C-382.10919513 352.05193612 -408.21272261 365.43980729 -433.5625 380.1875 C-434.7238074 380.85979854 -435.88527302 381.53182384 -437.046875 382.20361328 C-440.1857977 384.01980812 -443.32139222 385.84163686 -446.45471191 387.66748047 C-448.22010148 388.69616006 -449.98648838 389.7231275 -451.75292969 390.75 C-467.75909526 400.13150579 -483.30280832 410.23425145 -498.72460938 420.54199219 C-501.19171713 422.19031755 -503.66209804 423.83364964 -506.1328125 425.4765625 C-520.05873642 434.75622455 -533.79323513 444.29997358 -547.25 454.25 C-548.43468872 455.12458862 -548.43468872 455.12458862 -549.64331055 456.0168457 C-556.15546826 460.84508615 -562.5484006 465.80995668 -568.88867188 470.86083984 C-570.61087327 472.22584019 -572.34284824 473.57745016 -574.078125 474.92578125 C-581.0121489 480.31944083 -587.78994516 485.8561978 -594.46875 491.5625 C-597.3580132 494.02665964 -600.29768458 496.42411 -603.25 498.8125 C-607.70153808 502.43584495 -611.98632455 506.20713872 -616.23046875 510.0703125 C-618.32073889 511.96801169 -620.43236115 513.83483415 -622.5625 515.6875 C-627.27794862 519.80057594 -631.93020484 523.9810877 -636.5625 528.1875 C-637.06442871 528.64286133 -637.56635742 529.09822266 -638.08349609 529.56738281 C-644.68767074 535.57117795 -651.13140728 541.68951046 -657.3984375 548.04492188 C-659.98746061 550.65798101 -662.61068725 553.14732357 -665.4375 555.5 C-670.0457712 559.41989874 -674.04046554 563.90821973 -678.13256836 568.35107422 C-681.99828186 572.54009442 -685.94124168 576.62308885 -690 580.625 C-693.7358277 584.31740888 -697.32566463 588.0729526 -700.73046875 592.07421875 C-702.61170883 594.24426328 -704.55237213 596.35276351 -706.50610352 598.45751953 C-711.33831039 603.66473137 -715.92247015 608.99837201 -720.37890625 614.53515625 C-722.55647068 617.18017637 -724.81568763 619.71962525 -727.125 622.25 C-730.70015575 626.18267133 -734.07141266 630.21985465 -737.359375 634.39453125 C-738.96093157 636.42487335 -740.57367784 638.4415487 -742.203125 640.44921875 C-747.93947216 647.53115296 -753.52780434 654.7117882 -759 662 C-759.55953369 662.74427246 -760.11906738 663.48854492 -760.69555664 664.25537109 C-762.66386961 666.8902949 -764.61580629 669.53655183 -766.5625 672.1875 C-767.02216156 672.81345062 -767.48182312 673.43940125 -767.95541382 674.08432007 C-776.43276437 685.65542272 -784.5651756 697.42632519 -792.5 709.375 C-793.06554596 710.2250058 -793.63109192 711.0750116 -794.21377563 711.95077515 C-806.75717099 730.81988216 -818.46890175 750.07702995 -829.68041992 769.76489258 C-830.27443604 770.80540771 -830.86845215 771.84592285 -831.48046875 772.91796875 C-832.26587036 774.30085083 -832.26587036 774.30085083 -833.06713867 775.71166992 C-834.44479396 777.99261723 -835.92157001 780.09060292 -837.5625 782.1875 C-837.00887799 770.27474077 -835.0137455 758.6220168 -833.0625 746.875 C-832.88709686 745.81104004 -832.71169373 744.74708008 -832.53097534 743.65087891 C-825.07245182 698.48805379 -816.1199226 653.72939617 -805.3125 609.25 C-805.10980499 608.41453644 -804.90710999 607.57907288 -804.69827271 606.71829224 C-801.87997753 595.14084661 -798.81283896 583.65060335 -795.5625 572.1875 C-795.08825494 570.50678953 -794.61413741 568.82604308 -794.14013672 567.14526367 C-792.8955496 562.73806843 -791.64343903 558.33305303 -790.38793945 553.92895508 C-789.87991898 552.14511231 -789.37307999 550.36093264 -788.86743164 548.57641602 C-785.53248757 536.80773544 -782.03267969 525.1086745 -778.29208374 513.4624939 C-777.5765786 511.23140001 -776.86701119 508.99850888 -776.15942383 506.76489258 C-761.11508338 459.31969957 -743.48418012 412.80260374 -723.5625 367.1875 C-723.046875 366.00462402 -722.53125 364.82174805 -722 363.60302734 C-704.97865814 324.72424171 -686.70964817 286.25357458 -665.55859375 249.4375 C-663.17876864 245.2923408 -660.87995836 241.11033307 -658.61083984 236.90380859 C-652.88480703 226.3023571 -646.69420621 216.0114186 -640.39941406 205.74145508 C-640.04348679 205.16058136 -639.68755951 204.57970764 -639.32084656 203.98123169 C-638.34971033 202.39819737 -637.37623204 200.81660049 -636.40258789 199.23510742 C-634.48640562 196.15177652 -634.48640562 196.15177652 -632.78491211 192.6394043 C-630.43525327 188.5259032 -627.2095123 186.37156551 -623.28125 183.8515625 C-622.5639119 183.37479065 -621.84657379 182.8980188 -621.10749817 182.40679932 C-618.76919373 180.85946603 -616.41679956 179.33536433 -614.0625 177.8125 C-612.42688933 176.74041424 -610.79172092 175.66765347 -609.15698242 174.59423828 C-587.15408746 160.20280162 -564.63162246 146.80364871 -541.5625 134.1875 C-540.50224609 133.60323242 -539.44199219 133.01896484 -538.34960938 132.41699219 C-500.66350692 111.68401105 -461.67350323 93.81598939 -421.6875 78 C-421.02447876 77.73714203 -420.36145752 77.47428406 -419.67834473 77.20346069 C-411.5330441 73.98560986 -403.33341961 71.04485979 -394.99560547 68.36987305 C-391.43063331 67.14208467 -388.02542651 65.676556 -384.5625 64.1875 C-382.14849876 63.3203717 -379.72464993 62.48029783 -377.29296875 61.6640625 C-376.2822657 61.32442978 -376.2822657 61.32442978 -375.25114441 60.97793579 C-373.08538904 60.25218239 -370.91791734 59.53176761 -368.75 58.8125 C-368.00752014 58.56528198 -367.26504028 58.31806396 -366.50006104 58.06335449 C-357.00450958 54.90628675 -347.50817322 51.91039005 -337.83203125 49.3515625 C-333.6914328 48.24857839 -329.60728661 46.98532737 -325.51635742 45.71191406 C-303.08479603 38.73413207 -280.33419198 33.34269677 -257.3745575 28.44493103 C-253.17220348 27.54473796 -248.98215196 26.60131683 -244.796875 25.625 C-226.17863287 21.2966398 -207.44311131 18.1095106 -188.5625 15.1875 C-187.75341187 15.06139343 -186.94432373 14.93528687 -186.11071777 14.80535889 C-141.66082926 7.88748623 -97.05449592 3.71113941 -52.14151001 1.32852173 C-49.68565513 1.19423419 -47.23098065 1.04656162 -44.77612305 0.89526367 C-29.85776131 0.01090399 -14.94073746 -0.0145573 0 0 Z " fill="#FEC12B" transform="translate(1519.5625,428.8125)"/>
<path d="M0 0 C2.06228066 0.28414856 4.12477502 0.56675133 6.1875 0.84765625 C12.38254935 1.70375305 18.56704409 2.62339077 24.75 3.5625 C25.87118225 3.7322937 26.9923645 3.9020874 28.14752197 4.07702637 C133.73416247 20.15463532 237.88328384 46.21358008 527.64013672 160.37304688 C530.94013843 161.97101311 534.25036158 163.54500508 537.56640625 165.109375 C538.60200684 165.59889648 539.63760742 166.08841797 540.70458984 166.59277344 C542.60795469 167.4907105 544.51305907 168.38497573 546.42041016 169.27441406 C562.07525212 176.67853189 562.07525212 176.67853189 567.375 182.5 C571.74683545 187.15784338 577.29127161 189.32716429 583 192 C594.52808824 197.67695119 602.7257687 204.26578768 611 214 C611.97259766 215.08861328 611.97259766 215.08861328 612.96484375 216.19921875 C614.01611956 217.38415309 615.05313719 218.58191852 616.07421875 219.79296875 C618.32278547 222.36992655 620.66259773 224.84890587 623.00976562 227.3359375 C628.45682249 233.10810666 633.71254222 238.93094342 638.66796875 245.13671875 C641.49004366 248.6016784 644.42940033 251.9526353 647.375 255.3125 C652.98407999 261.73919943 658.31177326 268.33580467 663.51953125 275.08984375 C665.12634837 277.1630194 666.74946191 279.22272434 668.375 281.28125 C675.73660981 290.62784172 682.76319844 300.14358244 689.54541016 309.91748047 C690.97753685 311.96783977 692.42820756 314.00349998 693.88671875 316.03515625 C702.30291942 327.77918417 710.18824771 339.84767329 718 352 C718.53125488 352.82258301 719.06250977 353.64516602 719.60986328 354.49267578 C727.55388029 366.80832799 734.99428193 379.39257407 742.31420898 392.08764648 C744.66554575 396.14978932 747.04659736 400.19440938 749.42919922 404.23828125 C751.53869097 407.9471048 753.41519186 411.75215911 755.29296875 415.58203125 C756.93935095 418.87856311 758.64439873 422.13597182 760.37231445 425.39013672 C770.04650676 443.61479914 779.13096779 462.01684763 787.5 480.875 C787.84524719 481.65253632 788.19049438 482.43007263 788.54620361 483.23117065 C792.17922411 491.42926408 795.77312209 499.63125193 799 508 C795.04272997 506.19847748 791.51536597 503.76093775 787.91796875 501.34375 C786.88111687 500.65110046 786.88111687 500.65110046 785.82331848 499.94445801 C783.60992042 498.46513935 781.39867047 496.9826457 779.1875 495.5 C777.74298217 494.53363944 776.29832197 493.56749165 774.85351562 492.6015625 C769.88090324 489.2762841 764.90854901 485.95061113 759.94036865 482.61871338 C752.44528539 477.59258271 744.93917544 472.6016758 737.25 467.875 C736.3827832 467.34060303 735.51556641 466.80620605 734.62207031 466.25561523 C706.28464817 448.8671953 677.35151374 432.60998015 648 417 C646.51089111 416.20698486 646.51089111 416.20698486 644.99169922 415.39794922 C630.83706589 407.87881571 616.52510263 400.77429481 602 394 C600.75645816 393.41726645 599.51297074 392.83441675 598.26953125 392.25146484 C580.48636664 383.92705145 562.55262349 376.01309828 544.4375 368.4375 C543.5458313 368.06422577 542.6541626 367.69095154 541.73547363 367.30636597 C525.75828806 360.63000285 509.71085335 354.16144541 493.33984375 348.5078125 C490.47355075 347.51437042 487.6118247 346.50946805 484.75390625 345.4921875 C469.8132556 340.19050839 454.76205448 335.21494306 439.71321106 330.23074341 C435.90698895 328.9695184 432.1042405 327.6990847 428.30664062 326.41210938 C419.84677234 323.55147005 411.39847238 320.86987688 402.75 318.625 C401.67572754 318.34100342 400.60145508 318.05700684 399.49462891 317.7644043 C397.20106925 317.15807793 394.90694935 316.55386729 392.61230469 315.95166016 C388.81418079 314.95104601 385.01985154 313.93671283 381.2265625 312.91796875 C363.2035898 308.06687308 363.2035898 308.06687308 345.10400391 303.51269531 C342.67519874 302.92085372 340.2499404 302.31529072 337.82421875 301.7109375 C247.50967582 279.40681406 154.24576667 267.79049115 -49.68640137 266.83856201 C-52.06833757 267.00476845 -54.45061949 267.1651215 -56.83300781 267.32470703 C-96.80607627 270.02888588 -136.62405708 274.21581103 -176.12109375 281.0078125 C-180.1077314 281.69055165 -184.09801093 282.32786398 -188.09765625 282.9296875 C-202.49004397 285.10663966 -216.62872048 287.97391105 -230.80761719 291.26074219 C-234.73409215 292.1699932 -238.66492354 293.0592576 -242.59619141 293.94750977 C-245.28381839 294.55600629 -247.97010692 295.17014623 -250.65625 295.78515625 C-254.31940851 296.622045 -257.98620265 297.43996709 -261.65625 298.24609375 C-270.61152646 300.22373336 -279.47224114 302.30484751 -288.24511719 304.984375 C-295.84714272 307.29819019 -303.52767789 309.31184007 -311.21386719 311.32568359 C-325.37398275 315.07862167 -339.26013916 319.69734271 -353.1484375 324.33935547 C-355.52529286 325.13345021 -357.90321976 325.92427519 -360.28125 326.71484375 C-361.82298092 327.22897402 -363.3646499 327.74329011 -364.90625 328.2578125 C-365.95020935 328.60478683 -365.95020935 328.60478683 -367.01525879 328.95877075 C-371.71877985 330.53400391 -376.36510544 332.23373833 -381 334 C-382.40318481 334.52871704 -382.40318481 334.52871704 -383.8347168 335.06811523 C-441.71418634 356.99518667 -498.13674188 382.69892362 -551.33886719 414.42089844 C-553.77062718 415.86389143 -556.21399411 417.28371153 -558.6640625 418.6953125 C-572.16578605 426.54585564 -585.08167555 435.281362 -598.04003906 443.98779297 C-598.8135672 444.50738083 -599.58709534 445.02696869 -600.38406372 445.56230164 C-601.8554011 446.55153627 -603.32587568 447.54205571 -604.79537964 448.53401184 C-609.78311423 451.89155711 -609.78311423 451.89155711 -612 453 C-610.62473303 449.25937487 -608.91083354 446.06347257 -606.76171875 442.7109375 C-606.11315918 441.69668701 -605.46459961 440.68243652 -604.79638672 439.63745117 C-604.1004541 438.56084229 -603.40452148 437.4842334 -602.6875 436.375 C-602.32996643 435.81954498 -601.97243286 435.26408997 -601.60406494 434.69180298 C-594.9310621 424.32510182 -588.0454938 414.1168788 -581 404 C-579.85797173 402.35033046 -578.71604689 400.70058932 -577.57421875 399.05078125 C-558.75570713 371.93678391 -539.05733694 345.1855083 -517.61328125 320.078125 C-515.22117731 317.2729268 -512.88544149 314.42536843 -510.5625 311.5625 C-502.48696365 301.65881192 -494.12180453 292.04014763 -485.4453125 282.66015625 C-483.44839207 280.48778754 -481.49171266 278.29460837 -479.5625 276.0625 C-472.07751265 267.45476455 -464.26891281 259.18613433 -456.15405273 251.17333984 C-452.85881997 247.9047737 -449.78246151 244.52217515 -446.76953125 240.99609375 C-441.94067859 235.5489774 -436.72724068 230.40913552 -431.1875 225.6875 C-427.42861904 222.4775834 -423.97284139 219.01187318 -420.5 215.5 C-416.50106288 211.46080702 -412.48141413 207.54278399 -408.14453125 203.86328125 C-405.8381534 201.85937918 -403.60771015 199.7873321 -401.37548828 197.70166016 C-396.04651715 192.72415139 -390.62347311 187.96911195 -384.93359375 183.40234375 C-381.45095703 180.55038425 -378.07238707 177.59157875 -374.6875 174.625 C-368.25772357 169.0134408 -361.65816238 163.68239762 -354.90136719 158.47167969 C-352.85647509 156.8889101 -350.8221568 155.29320476 -348.7890625 153.6953125 C-344.21307419 150.1035762 -339.61367725 146.54317069 -335 143 C-334.29907227 142.46068848 -333.59814453 141.92137695 -332.87597656 141.36572266 C-317.37755664 129.5116434 -301.0382397 118.86812186 -284.746521 108.14959717 C-283.22141495 107.14574002 -281.69774301 106.13970478 -280.17431641 105.13330078 C-251.91474933 86.4776845 -222.2139506 70.23967019 -192 55 C-191.09427246 54.54173828 -190.18854492 54.08347656 -189.25537109 53.61132812 C-147.88838124 32.8427826 -103.19424952 16.16014912 -58.32763672 4.87060547 C-54.81237835 3.95091278 -51.33334403 2.93591084 -47.84765625 1.91015625 C-45.39880904 1.23043086 -42.94959759 0.55201619 -40.5 -0.125 C-39.43515381 -0.45717529 -38.37030762 -0.78935059 -37.27319336 -1.1315918 C-24.82888903 -4.43137815 -12.52436616 -1.82306374 0 0 Z " fill="#0D82B6" transform="translate(1502,165)"/>
<path d="M0 0 C2.31177221 2.9965307 3.92786073 5.79291191 5.42578125 9.27734375 C5.8856543 10.33397217 6.34552734 11.39060059 6.81933594 12.47924805 C7.55845215 14.19108276 7.55845215 14.19108276 8.3125 15.9375 C16.65003699 34.97608222 25.71563115 53.6734066 35.09765625 72.21875 C36.50357177 74.99945376 37.87990335 77.79331919 39.24609375 80.59375 C44.71218499 91.74910623 50.62094931 102.58364969 56.79296875 113.36328125 C59.24299193 117.64627935 61.62083426 121.96158347 63.96264648 126.30444336 C71.07520285 139.47069838 78.88308141 152.20858606 86.73452759 164.94317627 C88.14078625 167.22882562 89.54029468 169.51855093 90.94018555 171.80810547 C98.15032514 183.5670506 105.6082984 195.13492286 113.28442383 206.59472656 C115.06969441 209.2607437 116.84868563 211.93087042 118.62695312 214.6015625 C125.91497814 225.52463188 133.36948412 236.31372611 141 247 C141.62592041 247.88139648 142.25184082 248.76279297 142.89672852 249.67089844 C151.04888916 261.13379537 159.520241 272.34180545 168.08496094 283.49853516 C169.86983029 285.82996955 171.64428575 288.168817 173.4140625 290.51171875 C180.53216308 299.91931074 187.90989467 309.07563698 195.45751953 318.14160156 C197.55112175 320.6639979 199.61956116 323.20654581 201.6875 325.75 C206.71440796 331.89915125 211.84962089 337.95427637 217 344 C217.49967285 344.58749023 217.9993457 345.17498047 218.51416016 345.78027344 C224.2558592 352.52727155 230.04185376 359.21986925 235.99609375 365.78125 C237.81311982 367.79308393 239.59944392 369.82660434 241.375 371.875 C245.67182646 376.80545985 250.11311006 381.60311784 254.54296875 386.41357422 C256.00193345 388.00210515 257.45495777 389.59586496 258.90625 391.19140625 C263.27040431 395.98423602 267.65676631 400.72190895 272.29039001 405.25794983 C273.97908016 406.9786832 275.54096116 408.7601804 277.10375977 410.59545898 C281.38830084 415.51780451 285.97154428 420.11525916 290.58984375 424.72265625 C291.49319962 425.62696884 292.39655548 426.53128143 293.32728577 427.46299744 C295.22796068 429.36434943 297.12959608 431.26467553 299.03295898 433.16333008 C301.45118392 435.57585861 303.86488958 437.99285081 306.27727413 440.41121769 C308.60818401 442.74664575 310.94293956 445.07822177 313.27734375 447.41015625 C314.13279282 448.26762955 314.98824188 449.12510284 315.86961365 450.00856018 C320.23630439 454.35841717 324.66497457 458.56534518 329.35072327 462.57090759 C331.51161389 464.44331161 333.50973493 466.44849601 335.5 468.5 C338.76384913 471.80263851 342.1141419 474.90050648 345.63671875 477.921875 C348.81704127 480.71845612 351.90474452 483.60992784 355 486.5 C359.92608535 491.09093366 364.88212578 495.62250541 370 500 C371.02220303 500.87622321 372.04433146 501.75253345 373.06640625 502.62890625 C374.83460831 504.14458009 376.60318434 505.65980802 378.37280273 507.17382812 C382.78583568 510.95125826 387.17752747 514.7525594 391.5625 518.5625 C400.6844965 526.47883727 409.83218526 534.35768542 419.30078125 541.859375 C421.32621837 543.46565509 423.34356418 545.08005696 425.35546875 546.703125 C432.64321747 552.57535928 440.00288013 558.33859912 447.45361328 564.00268555 C451.89229655 567.37902993 456.29898545 570.79228385 460.6862793 574.23510742 C469.55222023 581.18575128 478.58951216 587.85170716 487.75878906 594.39550781 C490.73057958 596.52302494 493.68695589 598.67145395 496.64404297 600.81933594 C500.42054674 603.55852033 504.20821968 606.28201264 508 609 C509.06734375 609.76521973 509.06734375 609.76521973 510.15625 610.54589844 C534.84882938 628.18185753 560.26228304 644.93184297 586 661 C586.82822266 661.51997559 587.65644531 662.03995117 588.50976562 662.57568359 C616.14970783 679.92246025 644.39531123 696.29950977 673 712 C673.87398437 712.48017578 674.74796875 712.96035156 675.6484375 713.45507812 C707.33763694 730.83087866 739.53402135 747.51243695 772.3125 762.75 C773.44018799 763.2744873 774.56787598 763.79897461 775.72973633 764.33935547 C781.60188807 767.04620528 787.50390085 769.65325915 793.46484375 772.15625 C794.69837159 772.68081973 795.93169125 773.20587926 797.16479492 773.73144531 C799.47521704 774.71005107 801.79397588 775.66931356 804.12231445 776.60449219 C811.62133912 779.79026565 816.10539979 783.52302034 821 790 C821.48919922 790.61230469 821.97839844 791.22460938 822.48242188 791.85546875 C823.8023796 793.51255853 825.09093816 795.1900085 826.375 796.875 C830.5550281 802.28071221 834.96825097 807.36536646 839.62109375 812.375 C841.91720369 814.90863856 844.05825673 817.51301126 846.1875 820.1875 C850.69027665 825.77383253 855.56366783 830.9706212 860.50854492 836.16674805 C863.61652969 839.43612241 866.66428045 842.73380292 869.6171875 846.14453125 C872.4551708 849.41542051 875.40183471 852.47473271 878.5 855.5 C881.59714402 858.55098845 884.61951134 861.62343509 887.4375 864.9375 C893.98459082 872.58626476 901.27662928 879.64270556 908.94140625 886.16015625 C911.56500102 888.50496296 914.0296847 890.99650638 916.5 893.5 C920.15992004 897.20409792 923.88943796 900.75287768 927.8515625 904.1328125 C930.03215407 906.02794481 932.15399725 907.97967328 934.27124023 909.94506836 C939.40121405 914.70449441 944.64369464 919.23913227 950.09765625 923.62890625 C953.38964165 926.31832097 956.5998102 929.09196815 959.8125 931.875 C966.70339484 937.81445975 973.79076389 943.45351735 981 949 C982.18239258 949.91338135 982.18239258 949.91338135 983.38867188 950.84521484 C996.14134962 960.68653299 1008.96408513 970.47301721 1022.47265625 979.265625 C1023.30667969 979.83796875 1024.14070313 980.4103125 1025 981 C1025 981.33 1025 981.66 1025 982 C1012.60801857 981.44170508 1000.44980681 979.81742479 988.1875 978 C987.15244324 977.84760864 986.11738647 977.69521729 985.05096436 977.53820801 C888.05880534 963.19236183 792.58583883 939.42623187 625 874 C623.92250488 873.51982422 622.84500977 873.03964844 621.73486328 872.54492188 C590.75642182 858.64646042 559.86888711 843.70293446 530.5859375 826.49804688 C526.71049647 824.25298398 522.78333327 822.10375632 518.86132812 819.94140625 C497.66653431 808.22883712 477.20111855 795.34181957 457 782 C455.89914062 781.27554688 454.79828125 780.55109375 453.6640625 779.8046875 C439.99674776 770.75421366 426.58122198 761.36404239 413.33837891 751.70458984 C411.76406611 750.55697532 410.18818732 749.41150632 408.61083984 748.26806641 C398.02401356 740.59213506 387.73166599 732.65984712 377.64208984 724.34228516 C375.51923808 722.60701323 373.35996002 720.92260196 371.1875 719.25 C362.42062689 712.48462056 353.98675223 705.32607198 345.6015625 698.09765625 C343.25217024 696.07255881 340.8932486 694.0597527 338.5234375 692.05859375 C331.67848954 686.26545167 325.01787847 680.31893348 318.50024414 674.15869141 C315.18765748 671.02840191 311.83443961 667.95804399 308.42553711 664.93261719 C302.91597931 659.97899057 297.65796782 654.8024094 292.42578125 649.55859375 C291.44807686 648.58156576 290.47022431 647.60468601 289.49223328 646.62794495 C287.46121562 644.59838709 285.43198012 642.56706933 283.40405273 640.53442383 C280.82568149 637.950341 278.2428237 635.37079657 275.65861225 632.79255581 C273.64488051 630.78246344 271.6335682 628.76996364 269.62294579 626.75676155 C268.21581897 625.34865923 266.80670666 623.94254192 265.39753723 622.53648376 C260.9278348 618.05055191 256.58155336 613.51796706 252.4657135 608.7038269 C250.10122393 605.9552127 247.60515829 603.33130448 245.125 600.6875 C240.58651476 595.81414451 236.30651203 590.79696023 232.13671875 585.6015625 C230.04117506 583.05013271 227.86036845 580.61673227 225.625 578.1875 C221.64491534 573.81491564 217.98652503 569.25830709 214.36547852 564.59008789 C211.36471218 560.72442218 208.31038847 556.91092864 205.20605469 553.12792969 C198.21136327 544.60379892 191.52139918 535.89054197 185 527 C184.47937988 526.29117676 183.95875977 525.58235352 183.42236328 524.85205078 C164.31481299 498.77306226 146.51203236 471.79434018 130 444 C129.41283203 443.01257812 128.82566406 442.02515625 128.22070312 441.0078125 C85.90634064 369.51905243 53.32755904 292.6303231 1.25 30.875 C1.18479156 29.9016571 1.11958313 28.92831421 1.05239868 27.92547607 C0.86830112 25.13551465 0.69037586 22.34524874 0.515625 19.5546875 C0.46272812 18.73633423 0.40983124 17.91798096 0.35533142 17.0748291 C0.01204385 11.37798668 -0.05586688 5.70641575 0 0 Z " fill="#FEC12B" transform="translate(95,1684)"/>
<path d="M0 0 C3.63294245 3.34592371 6.26372845 7.0675772 9.00390625 11.13671875 C9.48050186 11.83746017 9.95709747 12.5382016 10.44813538 13.26017761 C11.97083183 15.50318049 13.4862843 17.75092826 15 20 C15.48861511 20.72447327 15.97723022 21.44894653 16.48065186 22.19537354 C19.98216604 27.39050665 23.46417859 32.59848451 26.9375 37.8125 C27.4645755 38.60358154 27.991651 39.39466309 28.53469849 40.2097168 C36.18892345 51.70576193 43.77833755 63.22580155 51 75 C51.6182666 76.00272949 52.2365332 77.00545898 52.87353516 78.03857422 C69.18274213 104.52211873 84.53805921 131.45864693 99 159 C99.34222595 159.65051331 99.6844519 160.30102661 100.03704834 160.97125244 C109.66622707 179.28058159 118.91485382 197.69561456 127.43945312 216.55078125 C129.02700436 220.05968673 130.63010014 223.56121344 132.234375 227.0625 C166.86403632 303.02283313 193.67502411 383.39184201 234 641 C234.08677002 642.51859619 234.08677002 642.51859619 234.17529297 644.06787109 C236.42224091 684.26623656 235.60131395 724.84099927 233 765 C232.9514386 765.76113098 232.9028772 766.52226196 232.85284424 767.30645752 C230.21783852 808.15070624 224.78341351 848.82697722 217 889 C216.77407166 890.1702774 216.77407166 890.1702774 216.5435791 891.36419678 C201.07348351 971.17723607 175.53776046 1048.42475699 141 1122 C140.52981445 1123.00353516 140.05962891 1124.00707031 139.57519531 1125.04101562 C115.86883778 1175.47119529 87.63760887 1223.16327308 56 1269 C55.45102051 1269.79776855 54.90204102 1270.59553711 54.33642578 1271.41748047 C46.50606408 1282.76936687 38.20526664 1293.74155591 29.79345703 1304.66748047 C28.26107308 1306.66045573 26.73546434 1308.65820448 25.21484375 1310.66015625 C16.43430907 1322.18193103 7.27838415 1333.40276572 -2.12353516 1344.42236328 C-4.91282942 1347.6949863 -7.62705218 1351.01695383 -10.3125 1354.375 C-14.597507 1359.64826087 -19.19304013 1364.59381939 -23.86450195 1369.52294922 C-26.72547053 1372.54402066 -29.53521619 1375.59077138 -32.25732422 1378.73803711 C-35.85760791 1382.86328187 -39.55732162 1386.88287939 -43.3125 1390.8671875 C-44.34129272 1391.95904861 -44.34129272 1391.95904861 -45.39086914 1393.07296753 C-52.70329088 1400.7963675 -60.19031301 1408.34179719 -67.72119141 1415.8515625 C-70.03016236 1418.15509127 -72.33362777 1420.46403136 -74.63671875 1422.7734375 C-76.13249141 1424.26855047 -77.62857364 1425.76335381 -79.125 1427.2578125 C-80.13614868 1428.27199753 -80.13614868 1428.27199753 -81.16772461 1429.30667114 C-85.07085219 1433.19082619 -89.08462676 1436.88713471 -93.25228882 1440.48587036 C-95.18219925 1442.15784832 -97.04997071 1443.88291815 -98.89453125 1445.6484375 C-99.85407715 1446.56061035 -99.85407715 1446.56061035 -100.83300781 1447.49121094 C-101.48624023 1448.11286133 -102.13947266 1448.73451172 -102.8125 1449.375 C-108.16720426 1454.43704326 -113.5950686 1459.23738997 -119.359375 1463.828125 C-122.34097062 1466.28044329 -125.17538479 1468.8710877 -128 1471.5 C-133.47736596 1476.58387703 -139.17538179 1481.32084012 -145 1486 C-146.26392169 1487.03144917 -147.52688208 1488.06407702 -148.7890625 1489.09765625 C-156.12563331 1495.09925819 -163.52812794 1500.99012214 -171.05859375 1506.74609375 C-177.12235783 1511.3925637 -183.05330304 1516.15955461 -188.81762695 1521.17211914 C-207.3221712 1537.24287696 -227.38937654 1551.75066426 -248 1565 C-248.73428223 1565.4734082 -249.46856445 1565.94681641 -250.22509766 1566.43457031 C-265.73388589 1576.37535979 -281.79173754 1585.26882059 -298 1594 C-299.09860352 1594.59329102 -300.19720703 1595.18658203 -301.32910156 1595.79785156 C-325.54046287 1608.82215069 -325.54046287 1608.82215069 -334 1611 C-334.66 1610.67 -335.32 1610.34 -336 1610 C-335.45472656 1609.40574219 -334.90945312 1608.81148437 -334.34765625 1608.19921875 C-328.67716401 1601.96652386 -323.29539969 1595.55224848 -318 1589 C-316.56333724 1587.2493126 -315.12582883 1585.49931885 -313.6875 1583.75 C-303.55084279 1571.34708841 -293.66306472 1558.77535983 -284 1546 C-283.39752441 1545.20400391 -282.79504883 1544.40800781 -282.17431641 1543.58789062 C-275.42696364 1534.66176015 -268.73680275 1525.69768195 -262.1875 1516.625 C-261.65560059 1515.88870361 -261.12370117 1515.15240723 -260.57568359 1514.39379883 C-258.09051302 1510.94243038 -255.62965566 1507.47756527 -253.21484375 1503.9765625 C-252.77567627 1503.34540527 -252.33650879 1502.71424805 -251.8840332 1502.06396484 C-250.71972205 1500.38647175 -249.5663949 1498.70136922 -248.4140625 1497.015625 C-243.35790453 1490.69951827 -236.86361285 1486.39676734 -230.1875 1481.9375 C-213.34966162 1470.53950317 -197.09770789 1458.41719251 -181 1446 C-180.31357422 1445.47100098 -179.62714844 1444.94200195 -178.91992188 1444.39697266 C-171.48215677 1438.65082233 -164.22989012 1432.72420276 -157.0859375 1426.6171875 C-154.24394435 1424.19308244 -151.34709935 1421.84268601 -148.4375 1419.5 C-143.36248529 1415.37192681 -138.55984584 1410.99654409 -133.765625 1406.55078125 C-131.55944053 1404.51598117 -129.33367739 1402.52353762 -127.0625 1400.5625 C-115.27887829 1390.30434375 -104.1977895 1379.35591003 -93.16845703 1368.29882812 C-90.6121407 1365.73711354 -88.05047071 1363.18083894 -85.48828125 1360.625 C-83.83822067 1358.97427914 -82.18847002 1357.3232484 -80.5390625 1355.671875 C-79.78476959 1354.91960632 -79.03047668 1354.16733765 -78.25332642 1353.39227295 C-74.17849005 1349.29955472 -70.26532225 1345.12149907 -66.50189209 1340.74000549 C-64.2748565 1338.1598906 -61.94807682 1335.68149388 -59.625 1333.1875 C-55.35604806 1328.56700451 -51.31968706 1323.80893248 -47.375 1318.90625 C-45.16228721 1316.19858829 -42.89880165 1313.54835091 -40.60791016 1310.90722656 C-34.97548947 1304.41170192 -29.5924865 1297.77190384 -24.42822266 1290.89648438 C-22.82927266 1288.77329744 -21.21734984 1286.66026003 -19.60546875 1284.546875 C-5.95381439 1266.57767388 6.98165379 1248.10226142 19 1229 C19.49532227 1228.21512207 19.99064453 1227.43024414 20.50097656 1226.62158203 C33.57449079 1205.8560904 45.88354621 1184.67577883 57.39990234 1163.0078125 C58.45821672 1161.01842692 59.52097553 1159.0313987 60.58837891 1157.046875 C93.66155735 1095.5191656 118.05631059 1028.68048769 135 961 C135.19315796 960.22972473 135.38631592 959.45944946 135.58532715 958.66583252 C149.39127969 903.37726647 157.72923454 846.88611912 161 790 C161.04732269 789.19292603 161.09464539 788.38585205 161.1434021 787.55432129 C162.06442988 771.37241008 162.20129572 755.20512057 162.1875 739 C162.18689575 737.68163147 162.1862915 736.36326294 162.18566895 735.00494385 C162.16482388 713.2771742 161.71465249 691.66230844 160 670 C159.90525391 668.7861261 159.90525391 668.7861261 159.80859375 667.54772949 C153.13819945 582.86396751 135.0263012 500.02898261 103 405 C102.6611377 404.00081543 102.32227539 403.00163086 101.97314453 401.97216797 C91.98728798 372.63837826 79.35514951 343.93772703 66 316 C64.99467041 313.88026584 63.98946428 311.76047312 62.984375 309.640625 C61.96899788 307.5102985 60.95337386 305.38008966 59.9375 303.25 C59.19922974 301.68995239 59.19922974 301.68995239 58.44604492 300.09838867 C56.09160906 295.16715141 53.66607673 290.33556999 50.94140625 285.59765625 C43.11041575 271.73799521 40.91617776 258.90796745 39.41699219 243.16992188 C38.7056315 235.84234597 37.71247023 228.54795199 36.75 221.25 C36.6493927 220.47684448 36.5487854 219.70368896 36.44512939 218.90710449 C30.82983764 175.83625727 23.02541543 133.28691909 13.43878174 90.94006348 C12.83030222 88.24968512 12.225817 85.5584123 11.62109375 82.8671875 C10.6474265 78.54479616 9.66064681 74.22555222 8.66699219 69.90771484 C8.17796866 67.77584436 7.6920883 65.64325223 7.20800781 63.51025391 C4.05154831 49.60851523 0.88523454 35.75022732 -3.31030273 22.11694336 C-5.10045184 16.20090369 -5.10045184 16.20090369 -4 14 C1.445 21.92 1.445 21.92 7 30 C6.4946875 28.08574219 5.989375 26.17148437 5.46875 24.19921875 C4.81230835 21.69536274 4.15606881 19.19145373 3.5 16.6875 C3.16613281 15.42486328 2.83226563 14.16222656 2.48828125 12.86132812 C2.17246094 11.65283203 1.85664063 10.44433594 1.53125 9.19921875 C1.09135742 7.52605591 1.09135742 7.52605591 0.64257812 5.8190918 C0 3 0 3 0 0 Z " fill="#086E9F" transform="translate(2635,828)"/>
<path d="M0 0 C0.33 0.66 0.66 1.32 1 2 C-0.00952148 4.50146484 -0.00952148 4.50146484 -1.62109375 7.7109375 C-2.2245841 8.92917142 -2.82801536 10.14743462 -3.43139648 11.36572266 C-3.75727753 12.01631653 -4.08315857 12.6669104 -4.41891479 13.33721924 C-13.18285402 30.87034917 -21.1416594 48.73523689 -28.98962402 66.69213867 C-29.99658669 68.99220346 -31.00781915 71.29034174 -32.02050781 73.58789062 C-41.95879296 96.14376948 -51.30042832 118.88935308 -60.1809082 141.88195801 C-60.94921749 143.86868445 -61.72090987 145.85405188 -62.49414062 147.83886719 C-98.24715225 239.77161106 -126.1593214 335.13608321 -150 446 C-150.17104248 446.80771851 -150.34208496 447.61543701 -150.51831055 448.44763184 C-152.80811354 459.27460467 -154.95033019 470.12515742 -157 481 C-157.2433609 482.28200287 -157.2433609 482.28200287 -157.49163818 483.58990479 C-167.85742248 538.25873342 -175.47788927 593.38180865 -180.84375 648.7578125 C-180.99709305 650.33244514 -180.99709305 650.33244514 -181.15353394 651.93888855 C-181.62584794 656.85289455 -182.06667316 661.76570069 -182.43725586 666.68847656 C-183.24526568 677.02876307 -184.78879219 686.52799799 -187.909729 696.42214966 C-189.08113659 700.15088404 -190.17405972 703.90300284 -191.27734375 707.65234375 C-191.50607178 708.4248497 -191.7347998 709.19735565 -191.97045898 709.99327087 C-216.06564365 791.87731624 -225.24767265 880.23142299 -203.38476562 1104.8984375 C-203.18689453 1105.78660156 -202.98902344 1106.67476562 -202.78515625 1107.58984375 C-202.60863525 1108.35159912 -202.43211426 1109.11335449 -202.25024414 1109.89819336 C-201.97596702 1112.20185363 -202.30068857 1113.80380764 -203 1116 C-210.53301909 1100.42100014 -217.33119461 1084.60377993 -223.8125 1068.5625 C-224.16794891 1067.68515198 -224.52339783 1066.80780396 -224.88961792 1065.90386963 C-229.53486923 1054.41897544 -233.973358 1042.87279852 -238.193573 1031.22506714 C-238.96731108 1029.0901942 -239.74585761 1026.95713617 -240.52563477 1024.82446289 C-247.44062344 1005.86909907 -253.63763244 986.82965278 -259.05224609 967.39257812 C-260.16122593 963.42287598 -261.30233733 959.46303876 -262.44750977 955.50366211 C-263.41125244 952.16156405 -264.35860118 948.8149687 -265.30273438 945.46728516 C-265.77258647 943.80470628 -266.24530318 942.14293462 -266.72070312 940.48193359 C-278.33190661 899.83498059 -285.85706383 858.09819809 -291.68292236 816.27044678 C-291.97896115 814.15064951 -292.27955801 812.03155462 -292.58154297 809.91259766 C-295.06507284 792.28065936 -296.72821176 774.61672297 -298.1875 756.875 C-298.27235657 755.85004425 -298.35721313 754.8250885 -298.44464111 753.76907349 C-300.49660428 728.73517316 -301.24080682 703.79850392 -301.25 678.6875 C-301.25058914 677.94676994 -301.25117828 677.20603989 -301.25178528 676.44286346 C-301.2786267 628.40399385 -298.39812677 580.40346666 -290.48681641 532.97412109 C-290.00049895 530.00304828 -289.54816993 527.02864219 -289.10546875 524.05078125 C-283.80120871 488.75683067 -275.93771015 453.49722393 -265.68701172 419.30957031 C-265.02482676 417.08346167 -264.38632756 414.85190944 -263.75390625 412.6171875 C-244.18968702 344.35055017 -214.98304908 277.70460003 -178.63623047 216.75488281 C-177.14820946 214.24953679 -175.68147525 211.7333576 -174.22265625 209.2109375 C-167.83553695 198.25319793 -160.9062821 187.67589613 -153.875 177.125 C-153.1797522 176.08063278 -153.1797522 176.08063278 -152.47045898 175.01516724 C-146.15689407 165.54635717 -139.67598554 156.21669616 -133 147 C-132.36707031 146.12617676 -131.73414063 145.25235352 -131.08203125 144.35205078 C-118.69555129 127.33110239 -105.7257956 110.85712854 -92.07714844 94.82910156 C-89.24181176 91.49329546 -86.48018329 88.11049296 -83.75 84.6875 C-79.30646967 79.22099866 -74.51697547 74.11239653 -69.66699219 69.00854492 C-66.33341654 65.50043418 -63.0582272 61.95503137 -59.84399414 58.33691406 C-55.26369032 53.24041246 -50.50288543 48.35785165 -45.65234375 43.51953125 C-44.79620987 42.66244064 -43.94007599 41.80535004 -43.05799866 40.92228699 C-41.26344465 39.12705791 -39.46764904 37.33306915 -37.6706543 35.5402832 C-34.93748595 32.81248598 -32.20971705 30.07937105 -29.48242188 27.34570312 C-27.72688313 25.59082502 -25.97103429 23.83625706 -24.21484375 22.08203125 C-23.40941635 21.27457962 -22.60398895 20.46712799 -21.77415466 19.63520813 C-17.00838258 14.888916 -12.11961909 10.3615042 -7 6 C-5.98914589 5.13112907 -5.98914589 5.13112907 -4.95787048 4.2447052 C-3.30773314 2.82690477 -1.6542473 1.4130029 0 0 Z " fill="#FEC12B" transform="translate(799,689)"/>
</svg>
