<?xml version="1.0" encoding="UTF-8" standalone="no"?>
<!DOCTYPE svg PUBLIC "-//W3C//DTD SVG 1.1//EN" "http://www.w3.org/Graphics/SVG/1.1/DTD/svg11.dtd">
<svg width="100%" height="100%" viewBox="0 0 1496 1458" version="1.1" xmlns="http://www.w3.org/2000/svg" xmlns:xlink="http://www.w3.org/1999/xlink" xml:space="preserve" xmlns:serif="http://www.serif.com/" style="fill-rule:evenodd;clip-rule:evenodd;stroke-linejoin:round;stroke-miterlimit:2;">
    <g id="Artboard1" transform="matrix(0.935531,0,0,0.937352,47.3684,50.0817)">
        <rect x="-50.633" y="-53.429" width="1598.44" height="1554.95" style="fill:none;"/>
        <g transform="matrix(4.4538,0,0,4.44515,810.149,1423.3)">
            <path d="M0,-279.9C-81.4,-279.3 -162.3,-227.1 -178.6,-151.2C-194.4,-78 -140.2,-9.7 -52.5,0.4C-59.1,-4.3 -65.9,-10.5 -72.5,-18.1C-79.7,-25.7 -85.9,-34.2 -91,-43.4C-95.6,-50.7 -99.3,-58.5 -102.2,-66.7C-103.3,-69.3 -104.3,-71.9 -105.2,-74.4C-115.5,-91.1 -121.4,-110.3 -121.3,-130.6C-121,-197 -58.1,-251.3 19.3,-251.9C78.3,-252.3 128.5,-221.5 149,-177.3C135.6,-239.7 72.5,-280.3 0,-279.8L0,-279.9Z" style="fill:rgb(255,179,0);"/>
        </g>
        <g transform="matrix(1576.67,363.175,363.882,-1573.61,-25.4883,464.199)">
            <path d="M0.012,-0.118C0.058,-0.287 0.22,-0.412 0.412,-0.447C0.405,-0.441 0.398,-0.435 0.392,-0.428C0.344,-0.378 0.307,-0.334 0.286,-0.287C0.247,-0.249 0.216,-0.202 0.197,-0.149C0.124,0.054 0.256,0.253 0.488,0.29C0.716,0.326 0.926,0.19 0.97,0.003C0.986,-0.065 0.979,-0.134 0.952,-0.194C0.915,-0.277 0.837,-0.344 0.747,-0.377C0.796,-0.369 0.84,-0.353 0.875,-0.325C0.876,-0.325 0.877,-0.324 0.878,-0.323C0.892,-0.312 0.904,-0.299 0.915,-0.284C0.989,-0.195 1.019,-0.081 0.987,0.036L0.988,0.035C0.926,0.263 0.654,0.41 0.384,0.364C0.372,0.362 0.361,0.36 0.349,0.358C0.103,0.301 -0.045,0.094 0.012,-0.118Z" style="fill:url(#_Linear1);fill-rule:nonzero;"/>
        </g>
        <g transform="matrix(-2043.78,-951.261,-953.112,2039.81,2217.02,1459.98)">
            <path d="M0.934,-0.195C0.94,-0.171 0.944,-0.146 0.945,-0.121C0.945,-0.106 0.945,-0.09 0.944,-0.075C0.937,0.021 0.901,0.116 0.839,0.19C0.83,0.2 0.821,0.21 0.811,0.219C0.669,0.364 0.457,0.293 0.424,0.101L0.424,0.101C0.423,0.097 0.422,0.093 0.421,0.088C0.421,0.088 0.421,0.088 0.421,0.087C0.42,0.083 0.419,0.078 0.418,0.073C0.408,-0.009 0.419,-0.099 0.456,-0.174C0.49,-0.213 0.541,-0.236 0.57,-0.24C0.573,-0.24 0.585,-0.242 0.587,-0.242C0.53,-0.162 0.5,-0.053 0.517,0.045C0.537,0.19 0.674,0.279 0.803,0.182C0.901,0.105 0.948,-0.03 0.93,-0.153C0.926,-0.176 0.92,-0.199 0.911,-0.221L0.911,-0.221C0.892,-0.263 0.864,-0.296 0.829,-0.315C0.758,-0.354 0.668,-0.327 0.61,-0.272C0.563,-0.265 0.518,-0.245 0.482,-0.216C0.494,-0.236 0.507,-0.254 0.521,-0.271C0.519,-0.27 0.517,-0.268 0.515,-0.267C0.593,-0.372 0.716,-0.407 0.81,-0.363C0.867,-0.336 0.914,-0.281 0.934,-0.195Z" style="fill:url(#_Linear2);fill-rule:nonzero;"/>
        </g>
    </g>
    <defs>
        <linearGradient id="_Linear1" x1="0" y1="0" x2="1" y2="0" gradientUnits="userSpaceOnUse" gradientTransform="matrix(1,0,0,-1,0,-0.0369683)"><stop offset="0" style="stop-color:rgb(3,155,229);stop-opacity:1"/><stop offset="0.7" style="stop-color:rgb(48,109,156);stop-opacity:1"/><stop offset="1" style="stop-color:rgb(48,109,156);stop-opacity:1"/></linearGradient>
        <linearGradient id="_Linear2" x1="0" y1="0" x2="1" y2="0" gradientUnits="userSpaceOnUse" gradientTransform="matrix(1,0,0,-1,0,-0.0426583)"><stop offset="0" style="stop-color:rgb(230,81,0);stop-opacity:1"/><stop offset="0.39" style="stop-color:rgb(230,81,0);stop-opacity:1"/><stop offset="1" style="stop-color:rgb(156,60,44);stop-opacity:1"/></linearGradient>
    </defs>
</svg>
